<svg width="107" height="13" viewBox="0 0 107 13" fill="none" xmlns="http://www.w3.org/2000/svg">
<path d="M3.456 1.42H4.824L7.728 10H6.696L5.856 7.528H2.316L1.488 10H0.504L3.456 1.42ZM2.604 6.7H5.58L4.092 2.284L2.604 6.7ZM9.33056 0.723999H10.3386V10H9.33056V0.723999ZM12.5415 0.723999H13.5495V10H12.5415V0.723999ZM18.9042 3.724H19.9002V4.852C19.9962 4.676 20.1042 4.516 20.2242 4.372C20.3522 4.22 20.4962 4.092 20.6562 3.988C20.8162 3.876 21.0042 3.788 21.2202 3.724C21.4362 3.66 21.6842 3.624 21.9642 3.616V4.552C21.6522 4.568 21.3682 4.608 21.1122 4.672C20.8562 4.736 20.6362 4.844 20.4522 4.996C20.2762 5.148 20.1402 5.352 20.0442 5.608C19.9482 5.856 19.9002 6.172 19.9002 6.556V10H18.9042V3.724ZM23.5806 3.724H24.5766V10H23.5806V3.724ZM24.0606 2.416C23.8766 2.416 23.7206 2.352 23.5926 2.224C23.4646 2.096 23.4006 1.94 23.4006 1.756C23.4006 1.572 23.4646 1.416 23.5926 1.288C23.7206 1.16 23.8766 1.096 24.0606 1.096C24.2446 1.096 24.4006 1.16 24.5286 1.288C24.6566 1.416 24.7206 1.572 24.7206 1.756C24.7206 1.94 24.6566 2.096 24.5286 2.224C24.4006 2.352 24.2446 2.416 24.0606 2.416ZM29.2638 12.292C28.7998 12.292 28.3958 12.24 28.0518 12.136C27.7158 12.032 27.4318 11.892 27.1998 11.716C26.9758 11.548 26.7998 11.344 26.6718 11.104C26.5438 10.872 26.4598 10.624 26.4198 10.36H27.4398C27.5838 11.088 28.1878 11.452 29.2518 11.452C29.8678 11.452 30.3558 11.296 30.7158 10.984C31.0838 10.68 31.2678 10.192 31.2678 9.52V8.608C31.1798 8.76 31.0598 8.908 30.9078 9.052C30.7638 9.196 30.5958 9.324 30.4038 9.436C30.2198 9.54 30.0198 9.628 29.8038 9.7C29.5878 9.764 29.3678 9.796 29.1438 9.796C28.7358 9.796 28.3558 9.724 28.0038 9.58C27.6518 9.428 27.3478 9.22 27.0918 8.956C26.8438 8.692 26.6478 8.38 26.5038 8.02C26.3598 7.652 26.2878 7.252 26.2878 6.82V6.736C26.2878 6.312 26.3598 5.912 26.5038 5.536C26.6478 5.152 26.8478 4.82 27.1038 4.54C27.3598 4.252 27.6678 4.028 28.0278 3.868C28.3878 3.7 28.7838 3.616 29.2158 3.616C29.7438 3.616 30.1718 3.728 30.4998 3.952C30.8278 4.168 31.0838 4.428 31.2678 4.732V3.724H32.2638V9.58C32.2638 10.036 32.1878 10.432 32.0358 10.768C31.8838 11.112 31.6758 11.396 31.4118 11.62C31.1478 11.844 30.8318 12.012 30.4638 12.124C30.1038 12.236 29.7038 12.292 29.2638 12.292ZM29.2518 8.968C29.5398 8.968 29.8078 8.92 30.0558 8.824C30.3118 8.72 30.5318 8.576 30.7158 8.392C30.8998 8.2 31.0438 7.968 31.1478 7.696C31.2518 7.416 31.3038 7.1 31.3038 6.748V6.664C31.3038 5.96 31.1238 5.416 30.7638 5.032C30.4118 4.64 29.9278 4.444 29.3118 4.444C28.9998 4.444 28.7198 4.5 28.4718 4.612C28.2238 4.724 28.0158 4.88 27.8478 5.08C27.6798 5.272 27.5478 5.508 27.4518 5.788C27.3638 6.06 27.3198 6.36 27.3198 6.688V6.784C27.3198 7.128 27.3718 7.436 27.4758 7.708C27.5798 7.972 27.7158 8.2 27.8838 8.392C28.0598 8.576 28.2638 8.72 28.4958 8.824C28.7358 8.92 28.9878 8.968 29.2518 8.968ZM34.4198 0.723999H35.4158V4.72C35.5598 4.424 35.7998 4.168 36.1358 3.952C36.4798 3.728 36.9118 3.616 37.4318 3.616C37.7518 3.616 38.0478 3.664 38.3198 3.76C38.5918 3.848 38.8238 3.996 39.0158 4.204C39.2158 4.404 39.3678 4.664 39.4718 4.984C39.5838 5.304 39.6398 5.692 39.6398 6.148V10H38.6438V6.076C38.6438 5.524 38.5238 5.12 38.2838 4.864C38.0438 4.608 37.6718 4.48 37.1678 4.48C36.9358 4.48 36.7118 4.516 36.4958 4.588C36.2878 4.66 36.1038 4.768 35.9438 4.912C35.7838 5.056 35.6558 5.236 35.5598 5.452C35.4638 5.668 35.4158 5.916 35.4158 6.196V10H34.4198V0.723999ZM43.6521 10.084C43.0761 10.084 42.6481 9.932 42.3681 9.628C42.0961 9.324 41.9601 8.924 41.9601 8.428V4.564H41.0601V3.724H41.9601V2.296H42.9561V3.724H44.4201V4.564H42.9561V8.332C42.9561 8.94 43.2161 9.244 43.7361 9.244C43.8961 9.244 44.0361 9.232 44.1561 9.208C44.2761 9.184 44.3921 9.152 44.5041 9.112V9.952C44.4001 9.992 44.2841 10.024 44.1561 10.048C44.0281 10.072 43.8601 10.084 43.6521 10.084ZM48.0943 10.108C47.3423 10.108 46.7503 9.932 46.3183 9.58C45.8943 9.22 45.6663 8.716 45.6343 8.068H46.6063C46.6463 8.444 46.7743 8.74 46.9903 8.956C47.2143 9.172 47.5783 9.28 48.0823 9.28C48.5623 9.28 48.9103 9.2 49.1263 9.04C49.3423 8.872 49.4503 8.62 49.4503 8.284C49.4503 7.956 49.3263 7.72 49.0783 7.576C48.8383 7.432 48.4743 7.316 47.9863 7.228C47.5783 7.156 47.2343 7.072 46.9543 6.976C46.6743 6.872 46.4503 6.748 46.2823 6.604C46.1143 6.46 45.9903 6.288 45.9103 6.088C45.8383 5.888 45.8023 5.652 45.8023 5.38C45.8023 5.092 45.8663 4.84 45.9943 4.624C46.1223 4.4 46.2863 4.216 46.4863 4.072C46.6943 3.92 46.9223 3.808 47.1703 3.736C47.4263 3.656 47.6783 3.616 47.9263 3.616C48.2063 3.616 48.4743 3.648 48.7303 3.712C48.9863 3.768 49.2143 3.868 49.4143 4.012C49.6223 4.156 49.7943 4.344 49.9303 4.576C50.0663 4.808 50.1543 5.092 50.1943 5.428H49.2343C49.1623 5.084 49.0223 4.836 48.8143 4.684C48.6143 4.524 48.3143 4.444 47.9143 4.444C47.5543 4.444 47.2663 4.528 47.0503 4.696C46.8343 4.856 46.7263 5.072 46.7263 5.344C46.7263 5.488 46.7463 5.612 46.7863 5.716C46.8343 5.812 46.9143 5.9 47.0263 5.98C47.1383 6.052 47.2863 6.12 47.4703 6.184C47.6623 6.24 47.9023 6.292 48.1903 6.34C48.5103 6.404 48.8063 6.476 49.0783 6.556C49.3503 6.628 49.5823 6.732 49.7743 6.868C49.9743 6.996 50.1263 7.168 50.2303 7.384C50.3423 7.592 50.3983 7.864 50.3983 8.2C50.3983 8.776 50.2063 9.24 49.8223 9.592C49.4383 9.936 48.8623 10.108 48.0943 10.108ZM55.2323 3.724H56.2283V4.852C56.3243 4.676 56.4323 4.516 56.5523 4.372C56.6803 4.22 56.8243 4.092 56.9843 3.988C57.1443 3.876 57.3323 3.788 57.5483 3.724C57.7643 3.66 58.0123 3.624 58.2923 3.616V4.552C57.9803 4.568 57.6963 4.608 57.4403 4.672C57.1843 4.736 56.9643 4.844 56.7803 4.996C56.6043 5.148 56.4683 5.352 56.3723 5.608C56.2763 5.856 56.2283 6.172 56.2283 6.556V10H55.2323V3.724ZM62.2769 10.108C61.8289 10.108 61.4209 10.032 61.0529 9.88C60.6849 9.728 60.3649 9.516 60.0929 9.244C59.8209 8.964 59.6089 8.628 59.4569 8.236C59.3129 7.844 59.2409 7.408 59.2409 6.928V6.832C59.2409 6.36 59.3129 5.928 59.4569 5.536C59.6009 5.136 59.8009 4.796 60.0569 4.516C60.3209 4.228 60.6329 4.008 60.9929 3.856C61.3529 3.696 61.7489 3.616 62.1809 3.616C62.5409 3.616 62.8889 3.676 63.2249 3.796C63.5689 3.908 63.8729 4.088 64.1369 4.336C64.4009 4.584 64.6089 4.908 64.7609 5.308C64.9209 5.7 65.0009 6.176 65.0009 6.736V7.06H60.2729C60.2969 7.78 60.4769 8.332 60.8129 8.716C61.1489 9.092 61.6409 9.28 62.2889 9.28C63.2729 9.28 63.8289 8.916 63.9569 8.188H64.9529C64.8409 8.82 64.5449 9.3 64.0649 9.628C63.5849 9.948 62.9889 10.108 62.2769 10.108ZM63.9809 6.256C63.9329 5.608 63.7489 5.144 63.4289 4.864C63.1169 4.584 62.7009 4.444 62.1809 4.444C61.6689 4.444 61.2489 4.608 60.9209 4.936C60.6009 5.256 60.3969 5.696 60.3089 6.256H63.9809ZM68.6724 10.108C67.9204 10.108 67.3284 9.932 66.8964 9.58C66.4724 9.22 66.2444 8.716 66.2124 8.068H67.1844C67.2244 8.444 67.3524 8.74 67.5684 8.956C67.7924 9.172 68.1564 9.28 68.6604 9.28C69.1404 9.28 69.4884 9.2 69.7044 9.04C69.9204 8.872 70.0284 8.62 70.0284 8.284C70.0284 7.956 69.9044 7.72 69.6564 7.576C69.4164 7.432 69.0524 7.316 68.5644 7.228C68.1564 7.156 67.8124 7.072 67.5324 6.976C67.2524 6.872 67.0284 6.748 66.8604 6.604C66.6924 6.46 66.5684 6.288 66.4884 6.088C66.4164 5.888 66.3804 5.652 66.3804 5.38C66.3804 5.092 66.4444 4.84 66.5724 4.624C66.7004 4.4 66.8644 4.216 67.0644 4.072C67.2724 3.92 67.5004 3.808 67.7484 3.736C68.0044 3.656 68.2564 3.616 68.5044 3.616C68.7844 3.616 69.0524 3.648 69.3084 3.712C69.5644 3.768 69.7924 3.868 69.9924 4.012C70.2004 4.156 70.3724 4.344 70.5084 4.576C70.6444 4.808 70.7324 5.092 70.7724 5.428H69.8124C69.7404 5.084 69.6004 4.836 69.3924 4.684C69.1924 4.524 68.8924 4.444 68.4924 4.444C68.1324 4.444 67.8444 4.528 67.6284 4.696C67.4124 4.856 67.3044 5.072 67.3044 5.344C67.3044 5.488 67.3244 5.612 67.3644 5.716C67.4124 5.812 67.4924 5.9 67.6044 5.98C67.7164 6.052 67.8644 6.12 68.0484 6.184C68.2404 6.24 68.4804 6.292 68.7684 6.34C69.0884 6.404 69.3844 6.476 69.6564 6.556C69.9284 6.628 70.1604 6.732 70.3524 6.868C70.5524 6.996 70.7044 7.168 70.8084 7.384C70.9204 7.592 70.9764 7.864 70.9764 8.2C70.9764 8.776 70.7844 9.24 70.4004 9.592C70.0164 9.936 69.4404 10.108 68.6724 10.108ZM75.2027 10.108C74.7547 10.108 74.3467 10.032 73.9787 9.88C73.6107 9.728 73.2907 9.516 73.0187 9.244C72.7467 8.964 72.5347 8.628 72.3827 8.236C72.2387 7.844 72.1667 7.408 72.1667 6.928V6.832C72.1667 6.36 72.2387 5.928 72.3827 5.536C72.5267 5.136 72.7267 4.796 72.9827 4.516C73.2467 4.228 73.5587 4.008 73.9187 3.856C74.2787 3.696 74.6747 3.616 75.1067 3.616C75.4667 3.616 75.8147 3.676 76.1507 3.796C76.4947 3.908 76.7987 4.088 77.0627 4.336C77.3267 4.584 77.5347 4.908 77.6867 5.308C77.8467 5.7 77.9267 6.176 77.9267 6.736V7.06H73.1987C73.2227 7.78 73.4027 8.332 73.7387 8.716C74.0747 9.092 74.5667 9.28 75.2147 9.28C76.1987 9.28 76.7547 8.916 76.8827 8.188H77.8787C77.7667 8.82 77.4707 9.3 76.9907 9.628C76.5107 9.948 75.9147 10.108 75.2027 10.108ZM76.9067 6.256C76.8587 5.608 76.6747 5.144 76.3547 4.864C76.0427 4.584 75.6267 4.444 75.1067 4.444C74.5947 4.444 74.1747 4.608 73.8467 4.936C73.5267 5.256 73.3227 5.696 73.2347 6.256H76.9067ZM79.5956 3.724H80.5916V4.852C80.6876 4.676 80.7956 4.516 80.9156 4.372C81.0436 4.22 81.1876 4.092 81.3476 3.988C81.5076 3.876 81.6956 3.788 81.9116 3.724C82.1276 3.66 82.3756 3.624 82.6556 3.616V4.552C82.3436 4.568 82.0596 4.608 81.8036 4.672C81.5476 4.736 81.3276 4.844 81.1436 4.996C80.9676 5.148 80.8316 5.352 80.7356 5.608C80.6396 5.856 80.5916 6.172 80.5916 6.556V10H79.5956V3.724ZM83.5986 3.724H84.6786L86.5386 8.992L88.3746 3.724H89.4066L87.1506 10H85.8786L83.5986 3.724ZM93.2496 10.108C92.8016 10.108 92.3936 10.032 92.0256 9.88C91.6576 9.728 91.3376 9.516 91.0656 9.244C90.7936 8.964 90.5816 8.628 90.4296 8.236C90.2856 7.844 90.2136 7.408 90.2136 6.928V6.832C90.2136 6.36 90.2856 5.928 90.4296 5.536C90.5736 5.136 90.7736 4.796 91.0296 4.516C91.2936 4.228 91.6056 4.008 91.9656 3.856C92.3256 3.696 92.7216 3.616 93.1536 3.616C93.5136 3.616 93.8616 3.676 94.1976 3.796C94.5416 3.908 94.8456 4.088 95.1096 4.336C95.3736 4.584 95.5816 4.908 95.7336 5.308C95.8936 5.7 95.9736 6.176 95.9736 6.736V7.06H91.2456C91.2696 7.78 91.4496 8.332 91.7856 8.716C92.1216 9.092 92.6136 9.28 93.2616 9.28C94.2456 9.28 94.8016 8.916 94.9296 8.188H95.9256C95.8136 8.82 95.5176 9.3 95.0376 9.628C94.5576 9.948 93.9616 10.108 93.2496 10.108ZM94.9536 6.256C94.9056 5.608 94.7216 5.144 94.4016 4.864C94.0896 4.584 93.6736 4.444 93.1536 4.444C92.6416 4.444 92.2216 4.608 91.8936 4.936C91.5736 5.256 91.3696 5.696 91.2816 6.256H94.9536ZM100.007 10.108C99.5985 10.108 99.2185 10.04 98.8665 9.904C98.5225 9.76 98.2225 9.556 97.9665 9.292C97.7185 9.02 97.5225 8.692 97.3785 8.308C97.2425 7.916 97.1745 7.476 97.1745 6.988V6.892C97.1745 6.412 97.2465 5.972 97.3905 5.572C97.5345 5.172 97.7345 4.828 97.9905 4.54C98.2465 4.244 98.5545 4.016 98.9145 3.856C99.2745 3.696 99.6705 3.616 100.103 3.616C100.631 3.616 101.059 3.728 101.387 3.952C101.715 4.168 101.971 4.428 102.155 4.732V0.723999H103.151V10H102.155V8.92C102.067 9.072 101.947 9.22 101.795 9.364C101.643 9.508 101.471 9.636 101.279 9.748C101.095 9.852 100.891 9.936 100.667 10C100.451 10.072 100.231 10.108 100.007 10.108ZM100.115 9.28C100.403 9.28 100.675 9.232 100.931 9.136C101.187 9.04 101.407 8.896 101.591 8.704C101.775 8.504 101.919 8.256 102.023 7.96C102.135 7.656 102.191 7.304 102.191 6.904V6.808C102.191 6 102.011 5.404 101.651 5.02C101.299 4.636 100.815 4.444 100.199 4.444C99.5745 4.444 99.0865 4.652 98.7345 5.068C98.3825 5.484 98.2065 6.076 98.2065 6.844V6.94C98.2065 7.34 98.2545 7.688 98.3505 7.984C98.4545 8.272 98.5905 8.512 98.7585 8.704C98.9345 8.896 99.1385 9.04 99.3705 9.136C99.6025 9.232 99.8505 9.28 100.115 9.28ZM105.991 10.06C105.783 10.06 105.603 9.988 105.451 9.844C105.299 9.692 105.223 9.508 105.223 9.292C105.223 9.076 105.299 8.896 105.451 8.752C105.603 8.6 105.783 8.524 105.991 8.524C106.199 8.524 106.379 8.6 106.531 8.752C106.683 8.896 106.759 9.076 106.759 9.292C106.759 9.508 106.683 9.692 106.531 9.844C106.379 9.988 106.199 10.06 105.991 10.06Z" fill="black"/>
</svg>
