<svg width="1290" height="34" viewBox="0 0 1290 34" fill="none" xmlns="http://www.w3.org/2000/svg">
<g clip-path="url(#clip0_1_369)">
<g clip-path="url(#clip1_1_369)">
<path d="M0 5.22852H3.52691V25.6073H0V5.22852Z" fill="#221F1F"/>
<path d="M9.55813 25.0256C8.44383 24.375 7.5621 23.4818 6.91295 22.3496C6.26034 21.2174 5.9375 19.9713 5.9375 18.615C5.9375 17.2549 6.26381 16.0125 6.91295 14.8803C7.5621 13.7482 8.44383 12.8586 9.55813 12.2043C10.6724 11.5537 11.8805 11.2266 13.1788 11.2266C14.4805 11.2266 15.6851 11.5537 16.7994 12.2043C17.9137 12.855 18.7954 13.7482 19.4446 14.8803C20.0937 16.0125 20.42 17.2586 20.42 18.615C20.42 19.975 20.0937 21.2174 19.4446 22.3496C18.792 23.4818 17.9102 24.375 16.7994 25.0256C15.6851 25.6762 14.4771 26.0034 13.1788 26.0034C11.877 25.9997 10.669 25.6762 9.55813 25.0256ZM15.0359 22.0519C15.5983 21.721 16.0461 21.2542 16.3863 20.6514C16.723 20.0485 16.8931 19.3685 16.8931 18.615C16.8931 17.8614 16.723 17.1814 16.3863 16.5786C16.0461 15.9757 15.5983 15.5089 15.0359 15.1781C14.4736 14.8473 13.8557 14.6818 13.1788 14.6818C12.5018 14.6818 11.8839 14.8473 11.3216 15.1781C10.7592 15.5089 10.3114 15.9757 9.97122 16.5786C9.63103 17.1814 9.46441 17.8614 9.46441 18.615C9.46441 19.3685 9.6345 20.0485 9.97122 20.6514C10.3079 21.2542 10.7592 21.721 11.3216 22.0519C11.8839 22.3827 12.5018 22.5481 13.1788 22.5481C13.8557 22.5481 14.4736 22.3827 15.0359 22.0519Z" fill="#221F1F"/>
<path d="M22.8301 5.22852H26.357V17.3698L30.9531 11.6244H35.1499L29.9637 18.1049L35.5249 25.6036H31.0086L26.357 19.1231V25.6036H22.8301V5.22852Z" fill="#221F1F"/>
<path d="M38.8505 25.0952C37.8612 24.4924 37.0593 23.6286 36.4449 22.5074C35.8304 21.3863 35.5215 20.0887 35.5215 18.6147C35.5215 17.2767 35.8166 16.038 36.4032 14.9058C36.9899 13.7737 37.7918 12.8768 38.8089 12.2151C39.826 11.5535 40.9368 11.2227 42.1483 11.2227C43.0023 11.2227 43.7833 11.3734 44.488 11.6748C45.1927 11.9762 45.7308 12.3805 46.1057 12.8915V11.6196H49.6326V25.6025H46.1057V24.3306C45.5537 24.8783 44.9636 25.2937 44.3422 25.5767C43.7208 25.8598 42.9155 26.0031 41.9366 26.0031C40.8674 25.9995 39.8399 25.698 38.8505 25.0952ZM45.2795 21.4157C45.939 20.6622 46.2688 19.7285 46.2688 18.6147C46.2688 17.501 45.939 16.5673 45.2795 15.8138C44.6199 15.0602 43.7451 14.6816 42.6586 14.6816C41.5721 14.6816 40.6973 15.0602 40.0377 15.8138C39.3782 16.5673 39.0484 17.5046 39.0484 18.6147C39.0484 19.7285 39.3782 20.6622 40.0377 21.4157C40.6973 22.1693 41.5686 22.5479 42.6586 22.5479C43.7451 22.5479 44.6199 22.1693 45.2795 21.4157Z" fill="#221F1F"/>
<path d="M52.7363 5.22852H56.2632V25.6073H52.7363V5.22852Z" fill="#221F1F"/>
<path d="M59.5504 9.01745C59.1234 8.56532 58.9082 8.01762 58.9082 7.37435C58.9082 6.71271 59.1234 6.15398 59.5504 5.69082C59.9774 5.22767 60.4946 4.99609 61.1021 4.99609C61.727 4.99609 62.2546 5.22767 62.692 5.69082C63.1294 6.15398 63.3481 6.71638 63.3481 7.37435C63.3481 8.01762 63.1294 8.56165 62.692 9.01745C62.2546 9.46957 61.7235 9.69748 61.1021 9.69748C60.4946 9.69748 59.9809 9.47325 59.5504 9.01745ZM59.363 11.6236H62.8899V25.6065H59.363V11.6236Z" fill="#221F1F"/>
<path d="M65.2988 24.6433L66.1007 21.1329H66.2604C67.4198 22.0776 68.6036 22.5481 69.8151 22.5481C70.3149 22.5481 70.7176 22.4489 71.0301 22.2504C71.3425 22.0519 71.4987 21.7651 71.4987 21.3865C71.4987 20.9895 71.3147 20.6697 70.9502 20.4235C70.5857 20.1772 69.9019 19.8758 68.9056 19.5192C67.8885 19.1627 67.1005 18.6407 66.5416 17.9607C65.9827 17.2806 65.698 16.4793 65.698 15.5567C65.698 14.2554 66.1563 13.2078 67.0762 12.4139C67.9926 11.6199 69.1555 11.2266 70.5649 11.2266C71.2765 11.2266 71.9118 11.2964 72.4637 11.4398C73.0157 11.5831 73.5398 11.811 74.0397 12.1345L74.1716 15.7H73.9842C73.342 15.2663 72.7727 14.9392 72.2728 14.7223C71.7729 14.5054 71.214 14.3951 70.5892 14.3951C70.1449 14.3951 69.7769 14.4907 69.4922 14.6782C69.2076 14.8656 69.0653 15.1119 69.0653 15.4133C69.0653 15.8103 69.2423 16.1338 69.5999 16.3911C69.9574 16.6447 70.6239 16.9535 71.6063 17.31C72.7276 17.707 73.578 18.1886 74.1578 18.7546C74.7375 19.3207 75.0256 20.1992 75.0256 21.3865C75.0256 22.368 74.793 23.2061 74.3313 23.9045C73.8662 24.6029 73.2587 25.1249 72.5019 25.4741C71.7452 25.8233 70.912 25.996 70.0025 25.996C68.1662 25.9997 66.5971 25.5476 65.2988 24.6433Z" fill="#221F1F"/>
<path d="M80.0019 25.0109C78.898 24.3493 78.0267 23.4487 77.3949 22.3092C76.7632 21.166 76.4473 19.8978 76.4473 18.501C76.4473 17.141 76.7458 15.9096 77.3429 14.8068C77.94 13.7041 78.7696 12.8292 79.8284 12.1896C80.8871 11.55 82.0882 11.2266 83.4247 11.2266C84.7785 11.2266 85.9519 11.5611 86.9377 12.2301C87.9271 12.8991 88.6734 13.7923 89.1837 14.9061C89.6905 16.0198 89.9474 17.2181 89.9474 18.501V19.6038H79.818C80.0332 20.6624 80.4914 21.4637 81.1961 22.0078C81.9008 22.5554 82.8311 22.8275 83.9905 22.8275C85.754 22.8275 87.2953 22.2136 88.6144 20.9895H88.9893L88.8574 24.5257C88.0555 25.0183 87.2085 25.3858 86.3163 25.6284C85.4242 25.8747 84.5703 25.996 83.751 25.996C82.3521 25.9997 81.1058 25.6725 80.0019 25.0109ZM86.417 17.0564C86.3268 16.2073 85.9935 15.542 85.4138 15.0604C84.8341 14.5789 84.1259 14.34 83.2893 14.34C82.4701 14.34 81.7515 14.5716 81.1371 15.0347C80.5226 15.4979 80.1096 16.1705 79.8943 17.0601H86.417V17.0564Z" fill="#221F1F"/>
</g>
</g>
<path d="M105.152 7.42H106.196V15.148H110.12V16H105.152V7.42ZM114.141 15.28C114.453 15.28 114.737 15.224 114.993 15.112C115.249 15 115.465 14.84 115.641 14.632C115.817 14.424 115.953 14.176 116.049 13.888C116.145 13.592 116.193 13.268 116.193 12.916V12.832C116.193 12.472 116.145 12.144 116.049 11.848C115.953 11.552 115.813 11.3 115.629 11.092C115.453 10.884 115.237 10.724 114.981 10.612C114.733 10.5 114.453 10.444 114.141 10.444C113.829 10.444 113.545 10.5 113.289 10.612C113.033 10.724 112.817 10.884 112.641 11.092C112.465 11.3 112.329 11.552 112.233 11.848C112.137 12.136 112.089 12.46 112.089 12.82V12.916C112.089 13.636 112.269 14.212 112.629 14.644C112.997 15.068 113.501 15.28 114.141 15.28ZM114.129 16.108C113.681 16.108 113.269 16.028 112.893 15.868C112.517 15.708 112.193 15.488 111.921 15.208C111.649 14.92 111.437 14.58 111.285 14.188C111.133 13.796 111.057 13.372 111.057 12.916V12.82C111.057 12.348 111.133 11.916 111.285 11.524C111.445 11.132 111.661 10.796 111.933 10.516C112.205 10.228 112.529 10.008 112.905 9.856C113.281 9.696 113.693 9.616 114.141 9.616C114.581 9.616 114.989 9.696 115.365 9.856C115.749 10.008 116.077 10.224 116.349 10.504C116.621 10.784 116.833 11.12 116.985 11.512C117.145 11.904 117.225 12.336 117.225 12.808V12.904C117.225 13.376 117.145 13.812 116.985 14.212C116.833 14.604 116.617 14.94 116.337 15.22C116.065 15.5 115.741 15.72 115.365 15.88C114.989 16.032 114.577 16.108 114.129 16.108ZM121.524 16.108C121.084 16.108 120.676 16.036 120.3 15.892C119.932 15.74 119.608 15.528 119.328 15.256C119.056 14.976 118.84 14.64 118.68 14.248C118.528 13.856 118.452 13.416 118.452 12.928V12.832C118.452 12.352 118.532 11.916 118.692 11.524C118.852 11.124 119.068 10.784 119.34 10.504C119.62 10.224 119.944 10.008 120.312 9.856C120.68 9.696 121.076 9.616 121.5 9.616C121.828 9.616 122.144 9.656 122.448 9.736C122.76 9.816 123.036 9.944 123.276 10.12C123.524 10.288 123.732 10.512 123.9 10.792C124.068 11.072 124.176 11.412 124.224 11.812H123.24C123.16 11.316 122.956 10.964 122.628 10.756C122.308 10.548 121.932 10.444 121.5 10.444C121.212 10.444 120.944 10.5 120.696 10.612C120.456 10.724 120.244 10.884 120.06 11.092C119.884 11.292 119.744 11.54 119.64 11.836C119.536 12.132 119.484 12.464 119.484 12.832V12.928C119.484 13.704 119.672 14.292 120.048 14.692C120.432 15.084 120.928 15.28 121.536 15.28C121.76 15.28 121.972 15.248 122.172 15.184C122.38 15.12 122.564 15.024 122.724 14.896C122.892 14.768 123.028 14.608 123.132 14.416C123.244 14.224 123.312 14 123.336 13.744H124.26C124.228 14.08 124.136 14.396 123.984 14.692C123.84 14.98 123.648 15.228 123.408 15.436C123.168 15.644 122.888 15.808 122.568 15.928C122.248 16.048 121.9 16.108 121.524 16.108ZM127.476 16.108C127.188 16.108 126.916 16.072 126.66 16C126.404 15.928 126.18 15.816 125.988 15.664C125.804 15.512 125.656 15.32 125.544 15.088C125.44 14.856 125.388 14.58 125.388 14.26C125.388 13.9 125.476 13.596 125.652 13.348C125.828 13.1 126.06 12.9 126.348 12.748C126.644 12.596 126.98 12.488 127.356 12.424C127.74 12.352 128.132 12.316 128.532 12.316H129.432V11.86C129.432 11.356 129.328 10.996 129.12 10.78C128.912 10.556 128.568 10.444 128.088 10.444C127.224 10.444 126.744 10.82 126.648 11.572H125.652C125.684 11.212 125.772 10.908 125.916 10.66C126.068 10.412 126.256 10.212 126.48 10.06C126.712 9.9 126.968 9.788 127.248 9.724C127.536 9.652 127.832 9.616 128.136 9.616C128.432 9.616 128.72 9.652 129 9.724C129.28 9.788 129.524 9.908 129.732 10.084C129.94 10.252 130.108 10.48 130.236 10.768C130.364 11.056 130.428 11.42 130.428 11.86V16H129.432V15.208C129.2 15.504 128.932 15.728 128.628 15.88C128.324 16.032 127.94 16.108 127.476 16.108ZM127.572 15.316C127.836 15.316 128.08 15.284 128.304 15.22C128.536 15.148 128.732 15.048 128.892 14.92C129.06 14.792 129.192 14.636 129.288 14.452C129.384 14.26 129.432 14.044 129.432 13.804V13.024H128.568C128.256 13.024 127.964 13.048 127.692 13.096C127.428 13.136 127.196 13.204 126.996 13.3C126.804 13.396 126.652 13.524 126.54 13.684C126.436 13.836 126.384 14.028 126.384 14.26C126.384 14.588 126.472 14.848 126.648 15.04C126.824 15.224 127.132 15.316 127.572 15.316ZM132.549 6.724H133.557V16H132.549V6.724ZM135.76 9.724H136.756V16H135.76V9.724ZM136.24 8.416C136.056 8.416 135.9 8.352 135.772 8.224C135.644 8.096 135.58 7.94 135.58 7.756C135.58 7.572 135.644 7.416 135.772 7.288C135.9 7.16 136.056 7.096 136.24 7.096C136.424 7.096 136.58 7.16 136.708 7.288C136.836 7.416 136.9 7.572 136.9 7.756C136.9 7.94 136.836 8.096 136.708 8.224C136.58 8.352 136.424 8.416 136.24 8.416ZM138.179 15.856L141.887 10.564H138.539V9.724H143.423V9.904L139.799 15.124H143.375V16H138.179V15.856ZM146.507 16.108C146.219 16.108 145.947 16.072 145.691 16C145.435 15.928 145.211 15.816 145.019 15.664C144.835 15.512 144.687 15.32 144.575 15.088C144.471 14.856 144.419 14.58 144.419 14.26C144.419 13.9 144.507 13.596 144.683 13.348C144.859 13.1 145.091 12.9 145.379 12.748C145.675 12.596 146.011 12.488 146.387 12.424C146.771 12.352 147.163 12.316 147.563 12.316H148.463V11.86C148.463 11.356 148.359 10.996 148.151 10.78C147.943 10.556 147.599 10.444 147.119 10.444C146.255 10.444 145.775 10.82 145.679 11.572H144.683C144.715 11.212 144.803 10.908 144.947 10.66C145.099 10.412 145.287 10.212 145.511 10.06C145.743 9.9 145.999 9.788 146.279 9.724C146.567 9.652 146.863 9.616 147.167 9.616C147.463 9.616 147.751 9.652 148.031 9.724C148.311 9.788 148.555 9.908 148.763 10.084C148.971 10.252 149.139 10.48 149.267 10.768C149.395 11.056 149.459 11.42 149.459 11.86V16H148.463V15.208C148.231 15.504 147.963 15.728 147.659 15.88C147.355 16.032 146.971 16.108 146.507 16.108ZM146.603 15.316C146.867 15.316 147.111 15.284 147.335 15.22C147.567 15.148 147.763 15.048 147.923 14.92C148.091 14.792 148.223 14.636 148.319 14.452C148.415 14.26 148.463 14.044 148.463 13.804V13.024H147.599C147.287 13.024 146.995 13.048 146.723 13.096C146.459 13.136 146.227 13.204 146.027 13.3C145.835 13.396 145.683 13.524 145.571 13.684C145.467 13.836 145.415 14.028 145.415 14.26C145.415 14.588 145.503 14.848 145.679 15.04C145.855 15.224 146.163 15.316 146.603 15.316ZM153.465 16.084C152.889 16.084 152.461 15.932 152.181 15.628C151.909 15.324 151.773 14.924 151.773 14.428V10.564H150.873V9.724H151.773V8.296H152.769V9.724H154.233V10.564H152.769V14.332C152.769 14.94 153.029 15.244 153.549 15.244C153.709 15.244 153.849 15.232 153.969 15.208C154.089 15.184 154.205 15.152 154.317 15.112V15.952C154.213 15.992 154.097 16.024 153.969 16.048C153.841 16.072 153.673 16.084 153.465 16.084ZM155.987 9.724H156.983V16H155.987V9.724ZM156.467 8.416C156.283 8.416 156.127 8.352 155.999 8.224C155.871 8.096 155.807 7.94 155.807 7.756C155.807 7.572 155.871 7.416 155.999 7.288C156.127 7.16 156.283 7.096 156.467 7.096C156.651 7.096 156.807 7.16 156.935 7.288C157.063 7.416 157.127 7.572 157.127 7.756C157.127 7.94 157.063 8.096 156.935 8.224C156.807 8.352 156.651 8.416 156.467 8.416ZM161.778 15.28C162.09 15.28 162.374 15.224 162.63 15.112C162.886 15 163.102 14.84 163.278 14.632C163.454 14.424 163.59 14.176 163.686 13.888C163.782 13.592 163.83 13.268 163.83 12.916V12.832C163.83 12.472 163.782 12.144 163.686 11.848C163.59 11.552 163.45 11.3 163.266 11.092C163.09 10.884 162.874 10.724 162.618 10.612C162.37 10.5 162.09 10.444 161.778 10.444C161.466 10.444 161.182 10.5 160.926 10.612C160.67 10.724 160.454 10.884 160.278 11.092C160.102 11.3 159.966 11.552 159.87 11.848C159.774 12.136 159.726 12.46 159.726 12.82V12.916C159.726 13.636 159.906 14.212 160.266 14.644C160.634 15.068 161.138 15.28 161.778 15.28ZM161.766 16.108C161.318 16.108 160.906 16.028 160.53 15.868C160.154 15.708 159.83 15.488 159.558 15.208C159.286 14.92 159.074 14.58 158.922 14.188C158.77 13.796 158.694 13.372 158.694 12.916V12.82C158.694 12.348 158.77 11.916 158.922 11.524C159.082 11.132 159.298 10.796 159.57 10.516C159.842 10.228 160.166 10.008 160.542 9.856C160.918 9.696 161.33 9.616 161.778 9.616C162.218 9.616 162.626 9.696 163.002 9.856C163.386 10.008 163.714 10.224 163.986 10.504C164.258 10.784 164.47 11.12 164.622 11.512C164.782 11.904 164.862 12.336 164.862 12.808V12.904C164.862 13.376 164.782 13.812 164.622 14.212C164.47 14.604 164.254 14.94 163.974 15.22C163.702 15.5 163.378 15.72 163.002 15.88C162.626 16.032 162.214 16.108 161.766 16.108ZM166.557 9.724H167.553V10.72C167.697 10.424 167.937 10.168 168.273 9.952C168.617 9.728 169.049 9.616 169.569 9.616C169.889 9.616 170.185 9.664 170.457 9.76C170.729 9.848 170.961 9.996 171.153 10.204C171.353 10.404 171.505 10.664 171.609 10.984C171.721 11.304 171.777 11.692 171.777 12.148V16H170.781V12.076C170.781 11.524 170.661 11.12 170.421 10.864C170.181 10.608 169.809 10.48 169.305 10.48C169.073 10.48 168.849 10.516 168.633 10.588C168.425 10.66 168.241 10.768 168.081 10.912C167.921 11.056 167.793 11.236 167.697 11.452C167.601 11.668 167.553 11.916 167.553 12.196V16H166.557V9.724ZM176.385 9.724H177.465L178.929 14.776L180.453 9.724H181.317L182.745 14.776L184.221 9.724H185.241L183.285 16H182.181L180.873 11.296L179.409 16H178.317L176.385 9.724ZM189.223 15.28C189.535 15.28 189.819 15.224 190.075 15.112C190.331 15 190.547 14.84 190.723 14.632C190.899 14.424 191.035 14.176 191.131 13.888C191.227 13.592 191.275 13.268 191.275 12.916V12.832C191.275 12.472 191.227 12.144 191.131 11.848C191.035 11.552 190.895 11.3 190.711 11.092C190.535 10.884 190.319 10.724 190.063 10.612C189.815 10.5 189.535 10.444 189.223 10.444C188.911 10.444 188.627 10.5 188.371 10.612C188.115 10.724 187.899 10.884 187.723 11.092C187.547 11.3 187.411 11.552 187.315 11.848C187.219 12.136 187.171 12.46 187.171 12.82V12.916C187.171 13.636 187.351 14.212 187.711 14.644C188.079 15.068 188.583 15.28 189.223 15.28ZM189.211 16.108C188.763 16.108 188.351 16.028 187.975 15.868C187.599 15.708 187.275 15.488 187.003 15.208C186.731 14.92 186.519 14.58 186.367 14.188C186.215 13.796 186.139 13.372 186.139 12.916V12.82C186.139 12.348 186.215 11.916 186.367 11.524C186.527 11.132 186.743 10.796 187.015 10.516C187.287 10.228 187.611 10.008 187.987 9.856C188.363 9.696 188.775 9.616 189.223 9.616C189.663 9.616 190.071 9.696 190.447 9.856C190.831 10.008 191.159 10.224 191.431 10.504C191.703 10.784 191.915 11.12 192.067 11.512C192.227 11.904 192.307 12.336 192.307 12.808V12.904C192.307 13.376 192.227 13.812 192.067 14.212C191.915 14.604 191.699 14.94 191.419 15.22C191.147 15.5 190.823 15.72 190.447 15.88C190.071 16.032 189.659 16.108 189.211 16.108ZM194.002 9.724H194.998V10.852C195.094 10.676 195.202 10.516 195.322 10.372C195.45 10.22 195.594 10.092 195.754 9.988C195.914 9.876 196.102 9.788 196.318 9.724C196.534 9.66 196.782 9.624 197.062 9.616V10.552C196.75 10.568 196.466 10.608 196.21 10.672C195.954 10.736 195.734 10.844 195.55 10.996C195.374 11.148 195.238 11.352 195.142 11.608C195.046 11.856 194.998 12.172 194.998 12.556V16H194.002V9.724ZM198.654 6.724H199.65V12.616L202.254 9.724H203.418L200.73 12.64L203.646 16H202.434L199.65 12.748V16H198.654V6.724ZM205.21 10.564H204.31V9.724H205.21V8.704C205.21 8.064 205.362 7.568 205.666 7.216C205.97 6.864 206.434 6.688 207.058 6.688C207.218 6.688 207.346 6.696 207.442 6.712C207.546 6.72 207.646 6.744 207.742 6.784V7.624C207.654 7.584 207.558 7.556 207.454 7.54C207.35 7.524 207.23 7.516 207.094 7.516C206.774 7.516 206.546 7.616 206.41 7.816C206.274 8.016 206.206 8.276 206.206 8.596V9.724H207.742V10.564H206.206V16H205.21V10.564ZM209.131 6.724H210.139V16H209.131V6.724ZM214.934 15.28C215.246 15.28 215.53 15.224 215.786 15.112C216.042 15 216.258 14.84 216.434 14.632C216.61 14.424 216.746 14.176 216.842 13.888C216.938 13.592 216.986 13.268 216.986 12.916V12.832C216.986 12.472 216.938 12.144 216.842 11.848C216.746 11.552 216.606 11.3 216.422 11.092C216.246 10.884 216.03 10.724 215.774 10.612C215.526 10.5 215.246 10.444 214.934 10.444C214.622 10.444 214.338 10.5 214.082 10.612C213.826 10.724 213.61 10.884 213.434 11.092C213.258 11.3 213.122 11.552 213.026 11.848C212.93 12.136 212.882 12.46 212.882 12.82V12.916C212.882 13.636 213.062 14.212 213.422 14.644C213.79 15.068 214.294 15.28 214.934 15.28ZM214.922 16.108C214.474 16.108 214.062 16.028 213.686 15.868C213.31 15.708 212.986 15.488 212.714 15.208C212.442 14.92 212.23 14.58 212.078 14.188C211.926 13.796 211.85 13.372 211.85 12.916V12.82C211.85 12.348 211.926 11.916 212.078 11.524C212.238 11.132 212.454 10.796 212.726 10.516C212.998 10.228 213.322 10.008 213.698 9.856C214.074 9.696 214.486 9.616 214.934 9.616C215.374 9.616 215.782 9.696 216.158 9.856C216.542 10.008 216.87 10.224 217.142 10.504C217.414 10.784 217.626 11.12 217.778 11.512C217.938 11.904 218.018 12.336 218.018 12.808V12.904C218.018 13.376 217.938 13.812 217.778 14.212C217.626 14.604 217.41 14.94 217.13 15.22C216.858 15.5 216.534 15.72 216.158 15.88C215.782 16.032 215.37 16.108 214.922 16.108ZM218.924 9.724H220.004L221.468 14.776L222.992 9.724H223.856L225.284 14.776L226.76 9.724H227.78L225.824 16H224.72L223.412 11.296L221.948 16H220.856L218.924 9.724ZM232.655 10.564H231.755V9.724H232.655V8.704C232.655 8.064 232.811 7.568 233.123 7.216C233.435 6.864 233.903 6.688 234.527 6.688C234.687 6.688 234.819 6.7 234.923 6.724C235.027 6.74 235.143 6.768 235.271 6.808V7.648C235.183 7.608 235.075 7.576 234.947 7.552C234.827 7.528 234.699 7.516 234.563 7.516C234.235 7.516 233.999 7.616 233.855 7.816C233.719 8.016 233.651 8.276 233.651 8.596V9.724H235.187V10.564H233.651V16H232.655V10.564ZM239.051 15.28C239.363 15.28 239.647 15.224 239.903 15.112C240.159 15 240.375 14.84 240.551 14.632C240.727 14.424 240.863 14.176 240.959 13.888C241.055 13.592 241.103 13.268 241.103 12.916V12.832C241.103 12.472 241.055 12.144 240.959 11.848C240.863 11.552 240.723 11.3 240.539 11.092C240.363 10.884 240.147 10.724 239.891 10.612C239.643 10.5 239.363 10.444 239.051 10.444C238.739 10.444 238.455 10.5 238.199 10.612C237.943 10.724 237.727 10.884 237.551 11.092C237.375 11.3 237.239 11.552 237.143 11.848C237.047 12.136 236.999 12.46 236.999 12.82V12.916C236.999 13.636 237.179 14.212 237.539 14.644C237.907 15.068 238.411 15.28 239.051 15.28ZM239.039 16.108C238.591 16.108 238.179 16.028 237.803 15.868C237.427 15.708 237.103 15.488 236.831 15.208C236.559 14.92 236.347 14.58 236.195 14.188C236.043 13.796 235.967 13.372 235.967 12.916V12.82C235.967 12.348 236.043 11.916 236.195 11.524C236.355 11.132 236.571 10.796 236.843 10.516C237.115 10.228 237.439 10.008 237.815 9.856C238.191 9.696 238.603 9.616 239.051 9.616C239.491 9.616 239.899 9.696 240.275 9.856C240.659 10.008 240.987 10.224 241.259 10.504C241.531 10.784 241.743 11.12 241.895 11.512C242.055 11.904 242.135 12.336 242.135 12.808V12.904C242.135 13.376 242.055 13.812 241.895 14.212C241.743 14.604 241.527 14.94 241.247 15.22C240.975 15.5 240.651 15.72 240.275 15.88C239.899 16.032 239.487 16.108 239.039 16.108ZM243.83 9.724H244.826V10.852C244.922 10.676 245.03 10.516 245.15 10.372C245.278 10.22 245.422 10.092 245.582 9.988C245.742 9.876 245.93 9.788 246.146 9.724C246.362 9.66 246.61 9.624 246.89 9.616V10.552C246.578 10.568 246.294 10.608 246.038 10.672C245.782 10.736 245.562 10.844 245.378 10.996C245.202 11.148 245.066 11.352 244.97 11.608C244.874 11.856 244.826 12.172 244.826 12.556V16H243.83V9.724ZM253.41 15.352L250.95 9.724H252.018L253.938 14.224L255.678 9.724H256.698L253.23 18.184H252.222L253.41 15.352ZM260.591 15.28C260.903 15.28 261.187 15.224 261.443 15.112C261.699 15 261.915 14.84 262.091 14.632C262.267 14.424 262.403 14.176 262.499 13.888C262.595 13.592 262.643 13.268 262.643 12.916V12.832C262.643 12.472 262.595 12.144 262.499 11.848C262.403 11.552 262.263 11.3 262.079 11.092C261.903 10.884 261.687 10.724 261.431 10.612C261.183 10.5 260.903 10.444 260.591 10.444C260.279 10.444 259.995 10.5 259.739 10.612C259.483 10.724 259.267 10.884 259.091 11.092C258.915 11.3 258.779 11.552 258.683 11.848C258.587 12.136 258.539 12.46 258.539 12.82V12.916C258.539 13.636 258.719 14.212 259.079 14.644C259.447 15.068 259.951 15.28 260.591 15.28ZM260.579 16.108C260.131 16.108 259.719 16.028 259.343 15.868C258.967 15.708 258.643 15.488 258.371 15.208C258.099 14.92 257.887 14.58 257.735 14.188C257.583 13.796 257.507 13.372 257.507 12.916V12.82C257.507 12.348 257.583 11.916 257.735 11.524C257.895 11.132 258.111 10.796 258.383 10.516C258.655 10.228 258.979 10.008 259.355 9.856C259.731 9.696 260.143 9.616 260.591 9.616C261.031 9.616 261.439 9.696 261.815 9.856C262.199 10.008 262.527 10.224 262.799 10.504C263.071 10.784 263.283 11.12 263.435 11.512C263.595 11.904 263.675 12.336 263.675 12.808V12.904C263.675 13.376 263.595 13.812 263.435 14.212C263.283 14.604 263.067 14.94 262.787 15.22C262.515 15.5 262.191 15.72 261.815 15.88C261.439 16.032 261.027 16.108 260.579 16.108ZM267.493 16.108C267.181 16.108 266.889 16.064 266.617 15.976C266.353 15.888 266.125 15.748 265.933 15.556C265.741 15.356 265.589 15.104 265.477 14.8C265.365 14.496 265.309 14.128 265.309 13.696V9.724H266.305V13.648C266.305 14.2 266.421 14.604 266.653 14.86C266.893 15.116 267.261 15.244 267.757 15.244C267.981 15.244 268.197 15.208 268.405 15.136C268.613 15.064 268.797 14.956 268.957 14.812C269.117 14.668 269.245 14.488 269.341 14.272C269.437 14.056 269.485 13.808 269.485 13.528V9.724H270.481V16H269.485V15.004C269.341 15.3 269.097 15.56 268.753 15.784C268.417 16 267.997 16.108 267.493 16.108ZM272.646 9.724H273.642V10.852C273.738 10.676 273.846 10.516 273.966 10.372C274.094 10.22 274.238 10.092 274.398 9.988C274.558 9.876 274.746 9.788 274.962 9.724C275.178 9.66 275.426 9.624 275.706 9.616V10.552C275.394 10.568 275.11 10.608 274.854 10.672C274.598 10.736 274.378 10.844 274.194 10.996C274.018 11.148 273.882 11.352 273.786 11.608C273.69 11.856 273.642 12.172 273.642 12.556V16H272.646V9.724ZM279.803 9.724H280.883L282.347 14.776L283.871 9.724H284.735L286.163 14.776L287.639 9.724H288.659L286.703 16H285.599L284.291 11.296L282.827 16H281.735L279.803 9.724ZM292.593 16.108C292.145 16.108 291.737 16.032 291.369 15.88C291.001 15.728 290.681 15.516 290.409 15.244C290.137 14.964 289.925 14.628 289.773 14.236C289.629 13.844 289.557 13.408 289.557 12.928V12.832C289.557 12.36 289.629 11.928 289.773 11.536C289.917 11.136 290.117 10.796 290.373 10.516C290.637 10.228 290.949 10.008 291.309 9.856C291.669 9.696 292.065 9.616 292.497 9.616C292.857 9.616 293.205 9.676 293.541 9.796C293.885 9.908 294.189 10.088 294.453 10.336C294.717 10.584 294.925 10.908 295.077 11.308C295.237 11.7 295.317 12.176 295.317 12.736V13.06H290.589C290.613 13.78 290.793 14.332 291.129 14.716C291.465 15.092 291.957 15.28 292.605 15.28C293.589 15.28 294.145 14.916 294.273 14.188H295.269C295.157 14.82 294.861 15.3 294.381 15.628C293.901 15.948 293.305 16.108 292.593 16.108ZM294.297 12.256C294.249 11.608 294.065 11.144 293.745 10.864C293.433 10.584 293.017 10.444 292.497 10.444C291.985 10.444 291.565 10.608 291.237 10.936C290.917 11.256 290.713 11.696 290.625 12.256H294.297ZM300.106 16.108C299.594 16.108 299.158 15.996 298.798 15.772C298.438 15.548 298.166 15.28 297.982 14.968V16H296.986V6.724H297.982V10.78C298.07 10.628 298.186 10.484 298.33 10.348C298.482 10.204 298.65 10.08 298.834 9.976C299.018 9.864 299.218 9.776 299.434 9.712C299.65 9.648 299.874 9.616 300.106 9.616C300.514 9.616 300.894 9.688 301.246 9.832C301.598 9.976 301.898 10.184 302.146 10.456C302.402 10.728 302.602 11.06 302.746 11.452C302.89 11.844 302.962 12.284 302.962 12.772V12.868C302.962 13.348 302.894 13.788 302.758 14.188C302.622 14.58 302.43 14.92 302.182 15.208C301.934 15.496 301.634 15.72 301.282 15.88C300.93 16.032 300.538 16.108 300.106 16.108ZM300.01 15.28C300.634 15.28 301.11 15.08 301.438 14.68C301.766 14.272 301.93 13.684 301.93 12.916V12.82C301.93 12.428 301.878 12.084 301.774 11.788C301.67 11.484 301.53 11.236 301.354 11.044C301.186 10.844 300.982 10.696 300.742 10.6C300.51 10.496 300.262 10.444 299.998 10.444C299.71 10.444 299.438 10.492 299.182 10.588C298.934 10.684 298.718 10.832 298.534 11.032C298.35 11.224 298.206 11.472 298.102 11.776C297.998 12.072 297.946 12.42 297.946 12.82V12.916C297.946 13.316 297.994 13.664 298.09 13.96C298.194 14.256 298.334 14.504 298.51 14.704C298.694 14.896 298.914 15.04 299.17 15.136C299.426 15.232 299.706 15.28 300.01 15.28ZM309.398 16.108C309.11 16.108 308.838 16.072 308.582 16C308.326 15.928 308.102 15.816 307.91 15.664C307.726 15.512 307.578 15.32 307.466 15.088C307.362 14.856 307.31 14.58 307.31 14.26C307.31 13.9 307.398 13.596 307.574 13.348C307.75 13.1 307.982 12.9 308.27 12.748C308.566 12.596 308.902 12.488 309.278 12.424C309.662 12.352 310.054 12.316 310.454 12.316H311.354V11.86C311.354 11.356 311.25 10.996 311.042 10.78C310.834 10.556 310.49 10.444 310.01 10.444C309.146 10.444 308.666 10.82 308.57 11.572H307.574C307.606 11.212 307.694 10.908 307.838 10.66C307.99 10.412 308.178 10.212 308.402 10.06C308.634 9.9 308.89 9.788 309.17 9.724C309.458 9.652 309.754 9.616 310.058 9.616C310.354 9.616 310.642 9.652 310.922 9.724C311.202 9.788 311.446 9.908 311.654 10.084C311.862 10.252 312.03 10.48 312.158 10.768C312.286 11.056 312.35 11.42 312.35 11.86V16H311.354V15.208C311.122 15.504 310.854 15.728 310.55 15.88C310.246 16.032 309.862 16.108 309.398 16.108ZM309.494 15.316C309.758 15.316 310.002 15.284 310.226 15.22C310.458 15.148 310.654 15.048 310.814 14.92C310.982 14.792 311.114 14.636 311.21 14.452C311.306 14.26 311.354 14.044 311.354 13.804V13.024H310.49C310.178 13.024 309.886 13.048 309.614 13.096C309.35 13.136 309.118 13.204 308.918 13.3C308.726 13.396 308.574 13.524 308.462 13.684C308.358 13.836 308.306 14.028 308.306 14.26C308.306 14.588 308.394 14.848 308.57 15.04C308.746 15.224 309.054 15.316 309.494 15.316ZM314.447 9.724H315.443V10.72C315.587 10.424 315.827 10.168 316.163 9.952C316.507 9.728 316.939 9.616 317.459 9.616C317.779 9.616 318.075 9.664 318.347 9.76C318.619 9.848 318.851 9.996 319.043 10.204C319.243 10.404 319.395 10.664 319.499 10.984C319.611 11.304 319.667 11.692 319.667 12.148V16H318.671V12.076C318.671 11.524 318.551 11.12 318.311 10.864C318.071 10.608 317.699 10.48 317.195 10.48C316.963 10.48 316.739 10.516 316.523 10.588C316.315 10.66 316.131 10.768 315.971 10.912C315.811 11.056 315.683 11.236 315.587 11.452C315.491 11.668 315.443 11.916 315.443 12.196V16H314.447V9.724ZM324.135 16.108C323.727 16.108 323.347 16.04 322.995 15.904C322.651 15.76 322.351 15.556 322.095 15.292C321.847 15.02 321.651 14.692 321.507 14.308C321.371 13.916 321.303 13.476 321.303 12.988V12.892C321.303 12.412 321.375 11.972 321.519 11.572C321.663 11.172 321.863 10.828 322.119 10.54C322.375 10.244 322.683 10.016 323.043 9.856C323.403 9.696 323.799 9.616 324.231 9.616C324.759 9.616 325.187 9.728 325.515 9.952C325.843 10.168 326.099 10.428 326.283 10.732V6.724H327.279V16H326.283V14.92C326.195 15.072 326.075 15.22 325.923 15.364C325.771 15.508 325.599 15.636 325.407 15.748C325.223 15.852 325.019 15.936 324.795 16C324.579 16.072 324.359 16.108 324.135 16.108ZM324.243 15.28C324.531 15.28 324.803 15.232 325.059 15.136C325.315 15.04 325.535 14.896 325.719 14.704C325.903 14.504 326.047 14.256 326.151 13.96C326.263 13.656 326.319 13.304 326.319 12.904V12.808C326.319 12 326.139 11.404 325.779 11.02C325.427 10.636 324.943 10.444 324.327 10.444C323.703 10.444 323.215 10.652 322.863 11.068C322.511 11.484 322.335 12.076 322.335 12.844V12.94C322.335 13.34 322.383 13.688 322.479 13.984C322.583 14.272 322.719 14.512 322.887 14.704C323.063 14.896 323.267 15.04 323.499 15.136C323.731 15.232 323.979 15.28 324.243 15.28ZM332.611 9.724H333.607V10.684C333.751 10.388 333.983 10.136 334.303 9.928C334.631 9.72 335.023 9.616 335.479 9.616C335.887 9.616 336.255 9.708 336.583 9.892C336.911 10.068 337.155 10.368 337.315 10.792C337.419 10.592 337.555 10.42 337.723 10.276C337.891 10.124 338.071 10 338.263 9.904C338.455 9.808 338.655 9.736 338.863 9.688C339.071 9.64 339.271 9.616 339.463 9.616C339.743 9.616 340.011 9.66 340.267 9.748C340.523 9.836 340.747 9.98 340.939 10.18C341.131 10.38 341.283 10.64 341.395 10.96C341.515 11.272 341.575 11.656 341.575 12.112V16H340.579V12.04C340.579 11.488 340.463 11.092 340.231 10.852C340.007 10.604 339.679 10.48 339.247 10.48C339.039 10.48 338.835 10.516 338.635 10.588C338.443 10.652 338.267 10.756 338.107 10.9C337.955 11.036 337.831 11.212 337.735 11.428C337.639 11.636 337.591 11.88 337.591 12.16V16H336.595V12.04C336.595 11.488 336.479 11.092 336.247 10.852C336.023 10.604 335.695 10.48 335.263 10.48C335.055 10.48 334.851 10.516 334.651 10.588C334.459 10.652 334.283 10.756 334.123 10.9C333.971 11.036 333.847 11.212 333.751 11.428C333.655 11.636 333.607 11.88 333.607 12.16V16H332.611V9.724ZM346.29 15.28C346.602 15.28 346.886 15.224 347.142 15.112C347.398 15 347.614 14.84 347.79 14.632C347.966 14.424 348.102 14.176 348.198 13.888C348.294 13.592 348.342 13.268 348.342 12.916V12.832C348.342 12.472 348.294 12.144 348.198 11.848C348.102 11.552 347.962 11.3 347.778 11.092C347.602 10.884 347.386 10.724 347.13 10.612C346.882 10.5 346.602 10.444 346.29 10.444C345.978 10.444 345.694 10.5 345.438 10.612C345.182 10.724 344.966 10.884 344.79 11.092C344.614 11.3 344.478 11.552 344.382 11.848C344.286 12.136 344.238 12.46 344.238 12.82V12.916C344.238 13.636 344.418 14.212 344.778 14.644C345.146 15.068 345.65 15.28 346.29 15.28ZM346.278 16.108C345.83 16.108 345.418 16.028 345.042 15.868C344.666 15.708 344.342 15.488 344.07 15.208C343.798 14.92 343.586 14.58 343.434 14.188C343.282 13.796 343.206 13.372 343.206 12.916V12.82C343.206 12.348 343.282 11.916 343.434 11.524C343.594 11.132 343.81 10.796 344.082 10.516C344.354 10.228 344.678 10.008 345.054 9.856C345.43 9.696 345.842 9.616 346.29 9.616C346.73 9.616 347.138 9.696 347.514 9.856C347.898 10.008 348.226 10.224 348.498 10.504C348.77 10.784 348.982 11.12 349.134 11.512C349.294 11.904 349.374 12.336 349.374 12.808V12.904C349.374 13.376 349.294 13.812 349.134 14.212C348.982 14.604 348.766 14.94 348.486 15.22C348.214 15.5 347.89 15.72 347.514 15.88C347.138 16.032 346.726 16.108 346.278 16.108ZM354.188 16.108C353.676 16.108 353.24 15.996 352.88 15.772C352.52 15.548 352.248 15.28 352.064 14.968V16H351.068V6.724H352.064V10.78C352.152 10.628 352.268 10.484 352.412 10.348C352.564 10.204 352.732 10.08 352.916 9.976C353.1 9.864 353.3 9.776 353.516 9.712C353.732 9.648 353.956 9.616 354.188 9.616C354.596 9.616 354.976 9.688 355.328 9.832C355.68 9.976 355.98 10.184 356.228 10.456C356.484 10.728 356.684 11.06 356.828 11.452C356.972 11.844 357.044 12.284 357.044 12.772V12.868C357.044 13.348 356.976 13.788 356.84 14.188C356.704 14.58 356.512 14.92 356.264 15.208C356.016 15.496 355.716 15.72 355.364 15.88C355.012 16.032 354.62 16.108 354.188 16.108ZM354.092 15.28C354.716 15.28 355.192 15.08 355.52 14.68C355.848 14.272 356.012 13.684 356.012 12.916V12.82C356.012 12.428 355.96 12.084 355.856 11.788C355.752 11.484 355.612 11.236 355.436 11.044C355.268 10.844 355.064 10.696 354.824 10.6C354.592 10.496 354.344 10.444 354.08 10.444C353.792 10.444 353.52 10.492 353.264 10.588C353.016 10.684 352.8 10.832 352.616 11.032C352.432 11.224 352.288 11.472 352.184 11.776C352.08 12.072 352.028 12.42 352.028 12.82V12.916C352.028 13.316 352.076 13.664 352.172 13.96C352.276 14.256 352.416 14.504 352.592 14.704C352.776 14.896 352.996 15.04 353.252 15.136C353.508 15.232 353.788 15.28 354.092 15.28ZM358.756 9.724H359.752V16H358.756V9.724ZM359.236 8.416C359.052 8.416 358.896 8.352 358.768 8.224C358.64 8.096 358.576 7.94 358.576 7.756C358.576 7.572 358.64 7.416 358.768 7.288C358.896 7.16 359.052 7.096 359.236 7.096C359.42 7.096 359.576 7.16 359.704 7.288C359.832 7.416 359.896 7.572 359.896 7.756C359.896 7.94 359.832 8.096 359.704 8.224C359.576 8.352 359.42 8.416 359.236 8.416ZM361.956 6.724H362.964V16H361.956V6.724ZM367.711 16.108C367.263 16.108 366.855 16.032 366.487 15.88C366.119 15.728 365.799 15.516 365.527 15.244C365.255 14.964 365.043 14.628 364.891 14.236C364.747 13.844 364.675 13.408 364.675 12.928V12.832C364.675 12.36 364.747 11.928 364.891 11.536C365.035 11.136 365.235 10.796 365.491 10.516C365.755 10.228 366.067 10.008 366.427 9.856C366.787 9.696 367.183 9.616 367.615 9.616C367.975 9.616 368.323 9.676 368.659 9.796C369.003 9.908 369.307 10.088 369.571 10.336C369.835 10.584 370.043 10.908 370.195 11.308C370.355 11.7 370.435 12.176 370.435 12.736V13.06H365.707C365.731 13.78 365.911 14.332 366.247 14.716C366.583 15.092 367.075 15.28 367.723 15.28C368.707 15.28 369.263 14.916 369.391 14.188H370.387C370.275 14.82 369.979 15.3 369.499 15.628C369.019 15.948 368.423 16.108 367.711 16.108ZM369.415 12.256C369.367 11.608 369.183 11.144 368.863 10.864C368.551 10.584 368.135 10.444 367.615 10.444C367.103 10.444 366.683 10.608 366.355 10.936C366.035 11.256 365.831 11.696 365.743 12.256H369.415ZM106.652 31.108C106.364 31.108 106.092 31.072 105.836 31C105.58 30.928 105.356 30.816 105.164 30.664C104.98 30.512 104.832 30.32 104.72 30.088C104.616 29.856 104.564 29.58 104.564 29.26C104.564 28.9 104.652 28.596 104.828 28.348C105.004 28.1 105.236 27.9 105.524 27.748C105.82 27.596 106.156 27.488 106.532 27.424C106.916 27.352 107.308 27.316 107.708 27.316H108.608V26.86C108.608 26.356 108.504 25.996 108.296 25.78C108.088 25.556 107.744 25.444 107.264 25.444C106.4 25.444 105.92 25.82 105.824 26.572H104.828C104.86 26.212 104.948 25.908 105.092 25.66C105.244 25.412 105.432 25.212 105.656 25.06C105.888 24.9 106.144 24.788 106.424 24.724C106.712 24.652 107.008 24.616 107.312 24.616C107.608 24.616 107.896 24.652 108.176 24.724C108.456 24.788 108.7 24.908 108.908 25.084C109.116 25.252 109.284 25.48 109.412 25.768C109.54 26.056 109.604 26.42 109.604 26.86V31H108.608V30.208C108.376 30.504 108.108 30.728 107.804 30.88C107.5 31.032 107.116 31.108 106.652 31.108ZM106.748 30.316C107.012 30.316 107.256 30.284 107.48 30.22C107.712 30.148 107.908 30.048 108.068 29.92C108.236 29.792 108.368 29.636 108.464 29.452C108.56 29.26 108.608 29.044 108.608 28.804V28.024H107.744C107.432 28.024 107.14 28.048 106.868 28.096C106.604 28.136 106.372 28.204 106.172 28.3C105.98 28.396 105.828 28.524 105.716 28.684C105.612 28.836 105.56 29.028 105.56 29.26C105.56 29.588 105.648 29.848 105.824 30.04C106 30.224 106.308 30.316 106.748 30.316ZM111.701 24.724H112.697V25.78C112.785 25.628 112.901 25.484 113.045 25.348C113.197 25.204 113.365 25.08 113.549 24.976C113.733 24.864 113.933 24.776 114.149 24.712C114.365 24.648 114.589 24.616 114.821 24.616C115.229 24.616 115.609 24.688 115.961 24.832C116.313 24.976 116.613 25.184 116.861 25.456C117.117 25.728 117.317 26.06 117.461 26.452C117.605 26.844 117.677 27.284 117.677 27.772V27.868C117.677 28.348 117.609 28.788 117.473 29.188C117.337 29.58 117.145 29.92 116.897 30.208C116.649 30.496 116.349 30.72 115.997 30.88C115.645 31.032 115.253 31.108 114.821 31.108C114.301 31.108 113.861 30.996 113.501 30.772C113.149 30.548 112.881 30.28 112.697 29.968V33.184H111.701V24.724ZM114.725 30.28C115.349 30.28 115.825 30.08 116.153 29.68C116.481 29.272 116.645 28.684 116.645 27.916V27.82C116.645 27.428 116.593 27.084 116.489 26.788C116.385 26.484 116.245 26.236 116.069 26.044C115.901 25.844 115.697 25.696 115.457 25.6C115.225 25.496 114.977 25.444 114.713 25.444C114.425 25.444 114.153 25.492 113.897 25.588C113.649 25.684 113.433 25.832 113.249 26.032C113.065 26.224 112.921 26.472 112.817 26.776C112.713 27.072 112.661 27.42 112.661 27.82V27.916C112.661 28.316 112.709 28.664 112.805 28.96C112.909 29.256 113.049 29.504 113.225 29.704C113.409 29.896 113.629 30.04 113.885 30.136C114.141 30.232 114.421 30.28 114.725 30.28ZM119.365 24.724H120.361V25.78C120.449 25.628 120.565 25.484 120.709 25.348C120.861 25.204 121.029 25.08 121.213 24.976C121.397 24.864 121.597 24.776 121.813 24.712C122.029 24.648 122.253 24.616 122.485 24.616C122.893 24.616 123.273 24.688 123.625 24.832C123.977 24.976 124.277 25.184 124.525 25.456C124.781 25.728 124.981 26.06 125.125 26.452C125.269 26.844 125.341 27.284 125.341 27.772V27.868C125.341 28.348 125.273 28.788 125.137 29.188C125.001 29.58 124.809 29.92 124.561 30.208C124.313 30.496 124.013 30.72 123.661 30.88C123.309 31.032 122.917 31.108 122.485 31.108C121.965 31.108 121.525 30.996 121.165 30.772C120.813 30.548 120.545 30.28 120.361 29.968V33.184H119.365V24.724ZM122.389 30.28C123.013 30.28 123.489 30.08 123.817 29.68C124.145 29.272 124.309 28.684 124.309 27.916V27.82C124.309 27.428 124.257 27.084 124.153 26.788C124.049 26.484 123.909 26.236 123.733 26.044C123.565 25.844 123.361 25.696 123.121 25.6C122.889 25.496 122.641 25.444 122.377 25.444C122.089 25.444 121.817 25.492 121.561 25.588C121.313 25.684 121.097 25.832 120.913 26.032C120.729 26.224 120.585 26.472 120.481 26.776C120.377 27.072 120.325 27.42 120.325 27.82V27.916C120.325 28.316 120.373 28.664 120.469 28.96C120.573 29.256 120.713 29.504 120.889 29.704C121.073 29.896 121.293 30.04 121.549 30.136C121.805 30.232 122.085 30.28 122.389 30.28ZM128.973 31.108C128.221 31.108 127.629 30.932 127.197 30.58C126.773 30.22 126.545 29.716 126.513 29.068H127.485C127.525 29.444 127.653 29.74 127.869 29.956C128.093 30.172 128.457 30.28 128.961 30.28C129.441 30.28 129.789 30.2 130.005 30.04C130.221 29.872 130.329 29.62 130.329 29.284C130.329 28.956 130.205 28.72 129.957 28.576C129.717 28.432 129.353 28.316 128.865 28.228C128.457 28.156 128.113 28.072 127.833 27.976C127.553 27.872 127.329 27.748 127.161 27.604C126.993 27.46 126.869 27.288 126.789 27.088C126.717 26.888 126.681 26.652 126.681 26.38C126.681 26.092 126.745 25.84 126.873 25.624C127.001 25.4 127.165 25.216 127.365 25.072C127.573 24.92 127.801 24.808 128.049 24.736C128.305 24.656 128.557 24.616 128.805 24.616C129.085 24.616 129.353 24.648 129.609 24.712C129.865 24.768 130.093 24.868 130.293 25.012C130.501 25.156 130.673 25.344 130.809 25.576C130.945 25.808 131.033 26.092 131.073 26.428H130.113C130.041 26.084 129.901 25.836 129.693 25.684C129.493 25.524 129.193 25.444 128.793 25.444C128.433 25.444 128.145 25.528 127.929 25.696C127.713 25.856 127.605 26.072 127.605 26.344C127.605 26.488 127.625 26.612 127.665 26.716C127.713 26.812 127.793 26.9 127.905 26.98C128.017 27.052 128.165 27.12 128.349 27.184C128.541 27.24 128.781 27.292 129.069 27.34C129.389 27.404 129.685 27.476 129.957 27.556C130.229 27.628 130.461 27.732 130.653 27.868C130.853 27.996 131.005 28.168 131.109 28.384C131.221 28.592 131.277 28.864 131.277 29.2C131.277 29.776 131.085 30.24 130.701 30.592C130.317 30.936 129.741 31.108 128.973 31.108ZM132.359 32.14L133.511 29.512L134.483 29.968L133.007 32.476L132.359 32.14ZM142.147 33.292C141.683 33.292 141.279 33.24 140.935 33.136C140.599 33.032 140.315 32.892 140.083 32.716C139.859 32.548 139.683 32.344 139.555 32.104C139.427 31.872 139.343 31.624 139.303 31.36H140.323C140.467 32.088 141.071 32.452 142.135 32.452C142.751 32.452 143.239 32.296 143.599 31.984C143.967 31.68 144.151 31.192 144.151 30.52V29.608C144.063 29.76 143.943 29.908 143.791 30.052C143.647 30.196 143.479 30.324 143.287 30.436C143.103 30.54 142.903 30.628 142.687 30.7C142.471 30.764 142.251 30.796 142.027 30.796C141.619 30.796 141.239 30.724 140.887 30.58C140.535 30.428 140.231 30.22 139.975 29.956C139.727 29.692 139.531 29.38 139.387 29.02C139.243 28.652 139.171 28.252 139.171 27.82V27.736C139.171 27.312 139.243 26.912 139.387 26.536C139.531 26.152 139.731 25.82 139.987 25.54C140.243 25.252 140.551 25.028 140.911 24.868C141.271 24.7 141.667 24.616 142.099 24.616C142.627 24.616 143.055 24.728 143.383 24.952C143.711 25.168 143.967 25.428 144.151 25.732V24.724H145.147V30.58C145.147 31.036 145.071 31.432 144.919 31.768C144.767 32.112 144.559 32.396 144.295 32.62C144.031 32.844 143.715 33.012 143.347 33.124C142.987 33.236 142.587 33.292 142.147 33.292ZM142.135 29.968C142.423 29.968 142.691 29.92 142.939 29.824C143.195 29.72 143.415 29.576 143.599 29.392C143.783 29.2 143.927 28.968 144.031 28.696C144.135 28.416 144.187 28.1 144.187 27.748V27.664C144.187 26.96 144.007 26.416 143.647 26.032C143.295 25.64 142.811 25.444 142.195 25.444C141.883 25.444 141.603 25.5 141.355 25.612C141.107 25.724 140.899 25.88 140.731 26.08C140.563 26.272 140.431 26.508 140.335 26.788C140.247 27.06 140.203 27.36 140.203 27.688V27.784C140.203 28.128 140.255 28.436 140.359 28.708C140.463 28.972 140.599 29.2 140.767 29.392C140.943 29.576 141.147 29.72 141.379 29.824C141.619 29.92 141.871 29.968 142.135 29.968ZM148.875 31.108C148.587 31.108 148.315 31.072 148.059 31C147.803 30.928 147.579 30.816 147.387 30.664C147.203 30.512 147.055 30.32 146.943 30.088C146.839 29.856 146.787 29.58 146.787 29.26C146.787 28.9 146.875 28.596 147.051 28.348C147.227 28.1 147.459 27.9 147.747 27.748C148.043 27.596 148.379 27.488 148.755 27.424C149.139 27.352 149.531 27.316 149.931 27.316H150.831V26.86C150.831 26.356 150.727 25.996 150.519 25.78C150.311 25.556 149.967 25.444 149.487 25.444C148.623 25.444 148.143 25.82 148.047 26.572H147.051C147.083 26.212 147.171 25.908 147.315 25.66C147.467 25.412 147.655 25.212 147.879 25.06C148.111 24.9 148.367 24.788 148.647 24.724C148.935 24.652 149.231 24.616 149.535 24.616C149.831 24.616 150.119 24.652 150.399 24.724C150.679 24.788 150.923 24.908 151.131 25.084C151.339 25.252 151.507 25.48 151.635 25.768C151.763 26.056 151.827 26.42 151.827 26.86V31H150.831V30.208C150.599 30.504 150.331 30.728 150.027 30.88C149.723 31.032 149.339 31.108 148.875 31.108ZM148.971 30.316C149.235 30.316 149.479 30.284 149.703 30.22C149.935 30.148 150.131 30.048 150.291 29.92C150.459 29.792 150.591 29.636 150.687 29.452C150.783 29.26 150.831 29.044 150.831 28.804V28.024H149.967C149.655 28.024 149.363 28.048 149.091 28.096C148.827 28.136 148.595 28.204 148.395 28.3C148.203 28.396 148.051 28.524 147.939 28.684C147.835 28.836 147.783 29.028 147.783 29.26C147.783 29.588 147.871 29.848 148.047 30.04C148.223 30.224 148.531 30.316 148.971 30.316ZM153.924 24.724H154.92V25.684C155.064 25.388 155.296 25.136 155.616 24.928C155.944 24.72 156.336 24.616 156.792 24.616C157.2 24.616 157.568 24.708 157.896 24.892C158.224 25.068 158.468 25.368 158.628 25.792C158.732 25.592 158.868 25.42 159.036 25.276C159.204 25.124 159.384 25 159.576 24.904C159.768 24.808 159.968 24.736 160.176 24.688C160.384 24.64 160.584 24.616 160.776 24.616C161.056 24.616 161.324 24.66 161.58 24.748C161.836 24.836 162.06 24.98 162.252 25.18C162.444 25.38 162.596 25.64 162.708 25.96C162.828 26.272 162.888 26.656 162.888 27.112V31H161.892V27.04C161.892 26.488 161.776 26.092 161.544 25.852C161.32 25.604 160.992 25.48 160.56 25.48C160.352 25.48 160.148 25.516 159.948 25.588C159.756 25.652 159.58 25.756 159.42 25.9C159.268 26.036 159.144 26.212 159.048 26.428C158.952 26.636 158.904 26.88 158.904 27.16V31H157.908V27.04C157.908 26.488 157.792 26.092 157.56 25.852C157.336 25.604 157.008 25.48 156.576 25.48C156.368 25.48 156.164 25.516 155.964 25.588C155.772 25.652 155.596 25.756 155.436 25.9C155.284 26.036 155.16 26.212 155.064 26.428C154.968 26.636 154.92 26.88 154.92 27.16V31H153.924V24.724ZM167.554 31.108C167.106 31.108 166.698 31.032 166.33 30.88C165.962 30.728 165.642 30.516 165.37 30.244C165.098 29.964 164.886 29.628 164.734 29.236C164.59 28.844 164.518 28.408 164.518 27.928V27.832C164.518 27.36 164.59 26.928 164.734 26.536C164.878 26.136 165.078 25.796 165.334 25.516C165.598 25.228 165.91 25.008 166.27 24.856C166.63 24.696 167.026 24.616 167.458 24.616C167.818 24.616 168.166 24.676 168.502 24.796C168.846 24.908 169.15 25.088 169.414 25.336C169.678 25.584 169.886 25.908 170.038 26.308C170.198 26.7 170.278 27.176 170.278 27.736V28.06H165.55C165.574 28.78 165.754 29.332 166.09 29.716C166.426 30.092 166.918 30.28 167.566 30.28C168.55 30.28 169.106 29.916 169.234 29.188H170.23C170.118 29.82 169.822 30.3 169.342 30.628C168.862 30.948 168.266 31.108 167.554 31.108ZM169.258 27.256C169.21 26.608 169.026 26.144 168.706 25.864C168.394 25.584 167.978 25.444 167.458 25.444C166.946 25.444 166.526 25.608 166.198 25.936C165.878 26.256 165.674 26.696 165.586 27.256H169.258ZM173.95 31.108C173.198 31.108 172.606 30.932 172.174 30.58C171.75 30.22 171.522 29.716 171.49 29.068H172.462C172.502 29.444 172.63 29.74 172.846 29.956C173.07 30.172 173.434 30.28 173.938 30.28C174.418 30.28 174.766 30.2 174.982 30.04C175.198 29.872 175.306 29.62 175.306 29.284C175.306 28.956 175.182 28.72 174.934 28.576C174.694 28.432 174.33 28.316 173.842 28.228C173.434 28.156 173.09 28.072 172.81 27.976C172.53 27.872 172.306 27.748 172.138 27.604C171.97 27.46 171.846 27.288 171.766 27.088C171.694 26.888 171.658 26.652 171.658 26.38C171.658 26.092 171.722 25.84 171.85 25.624C171.978 25.4 172.142 25.216 172.342 25.072C172.55 24.92 172.778 24.808 173.026 24.736C173.282 24.656 173.534 24.616 173.782 24.616C174.062 24.616 174.33 24.648 174.586 24.712C174.842 24.768 175.07 24.868 175.27 25.012C175.478 25.156 175.65 25.344 175.786 25.576C175.922 25.808 176.01 26.092 176.05 26.428H175.09C175.018 26.084 174.878 25.836 174.67 25.684C174.47 25.524 174.17 25.444 173.77 25.444C173.41 25.444 173.122 25.528 172.906 25.696C172.69 25.856 172.582 26.072 172.582 26.344C172.582 26.488 172.602 26.612 172.642 26.716C172.69 26.812 172.77 26.9 172.882 26.98C172.994 27.052 173.142 27.12 173.326 27.184C173.518 27.24 173.758 27.292 174.046 27.34C174.366 27.404 174.662 27.476 174.934 27.556C175.206 27.628 175.438 27.732 175.63 27.868C175.83 27.996 175.982 28.168 176.086 28.384C176.198 28.592 176.254 28.864 176.254 29.2C176.254 29.776 176.062 30.24 175.678 30.592C175.294 30.936 174.718 31.108 173.95 31.108ZM182.66 31.108C182.372 31.108 182.1 31.072 181.844 31C181.588 30.928 181.364 30.816 181.172 30.664C180.988 30.512 180.84 30.32 180.728 30.088C180.624 29.856 180.572 29.58 180.572 29.26C180.572 28.9 180.66 28.596 180.836 28.348C181.012 28.1 181.244 27.9 181.532 27.748C181.828 27.596 182.164 27.488 182.54 27.424C182.924 27.352 183.316 27.316 183.716 27.316H184.616V26.86C184.616 26.356 184.512 25.996 184.304 25.78C184.096 25.556 183.752 25.444 183.272 25.444C182.408 25.444 181.928 25.82 181.832 26.572H180.836C180.868 26.212 180.956 25.908 181.1 25.66C181.252 25.412 181.44 25.212 181.664 25.06C181.896 24.9 182.152 24.788 182.432 24.724C182.72 24.652 183.016 24.616 183.32 24.616C183.616 24.616 183.904 24.652 184.184 24.724C184.464 24.788 184.708 24.908 184.916 25.084C185.124 25.252 185.292 25.48 185.42 25.768C185.548 26.056 185.612 26.42 185.612 26.86V31H184.616V30.208C184.384 30.504 184.116 30.728 183.812 30.88C183.508 31.032 183.124 31.108 182.66 31.108ZM182.756 30.316C183.02 30.316 183.264 30.284 183.488 30.22C183.72 30.148 183.916 30.048 184.076 29.92C184.244 29.792 184.376 29.636 184.472 29.452C184.568 29.26 184.616 29.044 184.616 28.804V28.024H183.752C183.44 28.024 183.148 28.048 182.876 28.096C182.612 28.136 182.38 28.204 182.18 28.3C181.988 28.396 181.836 28.524 181.724 28.684C181.62 28.836 181.568 29.028 181.568 29.26C181.568 29.588 181.656 29.848 181.832 30.04C182.008 30.224 182.316 30.316 182.756 30.316ZM187.709 24.724H188.705V25.72C188.849 25.424 189.089 25.168 189.425 24.952C189.769 24.728 190.201 24.616 190.721 24.616C191.041 24.616 191.337 24.664 191.609 24.76C191.881 24.848 192.113 24.996 192.305 25.204C192.505 25.404 192.657 25.664 192.761 25.984C192.873 26.304 192.929 26.692 192.929 27.148V31H191.933V27.076C191.933 26.524 191.813 26.12 191.573 25.864C191.333 25.608 190.961 25.48 190.457 25.48C190.225 25.48 190.001 25.516 189.785 25.588C189.577 25.66 189.393 25.768 189.233 25.912C189.073 26.056 188.945 26.236 188.849 26.452C188.753 26.668 188.705 26.916 188.705 27.196V31H187.709V24.724ZM197.397 31.108C196.989 31.108 196.609 31.04 196.257 30.904C195.913 30.76 195.613 30.556 195.357 30.292C195.109 30.02 194.913 29.692 194.769 29.308C194.633 28.916 194.565 28.476 194.565 27.988V27.892C194.565 27.412 194.637 26.972 194.781 26.572C194.925 26.172 195.125 25.828 195.381 25.54C195.637 25.244 195.945 25.016 196.305 24.856C196.665 24.696 197.061 24.616 197.493 24.616C198.021 24.616 198.449 24.728 198.777 24.952C199.105 25.168 199.361 25.428 199.545 25.732V21.724H200.541V31H199.545V29.92C199.457 30.072 199.337 30.22 199.185 30.364C199.033 30.508 198.861 30.636 198.669 30.748C198.485 30.852 198.281 30.936 198.057 31C197.841 31.072 197.621 31.108 197.397 31.108ZM197.505 30.28C197.793 30.28 198.065 30.232 198.321 30.136C198.577 30.04 198.797 29.896 198.981 29.704C199.165 29.504 199.309 29.256 199.413 28.96C199.525 28.656 199.581 28.304 199.581 27.904V27.808C199.581 27 199.401 26.404 199.041 26.02C198.689 25.636 198.205 25.444 197.589 25.444C196.965 25.444 196.477 25.652 196.125 26.068C195.773 26.484 195.597 27.076 195.597 27.844V27.94C195.597 28.34 195.645 28.688 195.741 28.984C195.845 29.272 195.981 29.512 196.149 29.704C196.325 29.896 196.529 30.04 196.761 30.136C196.993 30.232 197.241 30.28 197.505 30.28ZM208.237 31.108C207.829 31.108 207.449 31.04 207.097 30.904C206.753 30.76 206.453 30.556 206.197 30.292C205.949 30.02 205.753 29.692 205.609 29.308C205.473 28.916 205.405 28.476 205.405 27.988V27.892C205.405 27.412 205.477 26.972 205.621 26.572C205.765 26.172 205.965 25.828 206.221 25.54C206.477 25.244 206.785 25.016 207.145 24.856C207.505 24.696 207.901 24.616 208.333 24.616C208.861 24.616 209.289 24.728 209.617 24.952C209.945 25.168 210.201 25.428 210.385 25.732V21.724H211.381V31H210.385V29.92C210.297 30.072 210.177 30.22 210.025 30.364C209.873 30.508 209.701 30.636 209.509 30.748C209.325 30.852 209.121 30.936 208.897 31C208.681 31.072 208.461 31.108 208.237 31.108ZM208.345 30.28C208.633 30.28 208.905 30.232 209.161 30.136C209.417 30.04 209.637 29.896 209.821 29.704C210.005 29.504 210.149 29.256 210.253 28.96C210.365 28.656 210.421 28.304 210.421 27.904V27.808C210.421 27 210.241 26.404 209.881 26.02C209.529 25.636 209.045 25.444 208.429 25.444C207.805 25.444 207.317 25.652 206.965 26.068C206.613 26.484 206.437 27.076 206.437 27.844V27.94C206.437 28.34 206.485 28.688 206.581 28.984C206.685 29.272 206.821 29.512 206.989 29.704C207.165 29.896 207.369 30.04 207.601 30.136C207.833 30.232 208.081 30.28 208.345 30.28ZM213.561 24.724H214.557V31H213.561V24.724ZM214.041 23.416C213.857 23.416 213.701 23.352 213.573 23.224C213.445 23.096 213.381 22.94 213.381 22.756C213.381 22.572 213.445 22.416 213.573 22.288C213.701 22.16 213.857 22.096 214.041 22.096C214.225 22.096 214.381 22.16 214.509 22.288C214.637 22.416 214.701 22.572 214.701 22.756C214.701 22.94 214.637 23.096 214.509 23.224C214.381 23.352 214.225 23.416 214.041 23.416ZM219.244 33.292C218.78 33.292 218.376 33.24 218.032 33.136C217.696 33.032 217.412 32.892 217.18 32.716C216.956 32.548 216.78 32.344 216.652 32.104C216.524 31.872 216.44 31.624 216.4 31.36H217.42C217.564 32.088 218.168 32.452 219.232 32.452C219.848 32.452 220.336 32.296 220.696 31.984C221.064 31.68 221.248 31.192 221.248 30.52V29.608C221.16 29.76 221.04 29.908 220.888 30.052C220.744 30.196 220.576 30.324 220.384 30.436C220.2 30.54 220 30.628 219.784 30.7C219.568 30.764 219.348 30.796 219.124 30.796C218.716 30.796 218.336 30.724 217.984 30.58C217.632 30.428 217.328 30.22 217.072 29.956C216.824 29.692 216.628 29.38 216.484 29.02C216.34 28.652 216.268 28.252 216.268 27.82V27.736C216.268 27.312 216.34 26.912 216.484 26.536C216.628 26.152 216.828 25.82 217.084 25.54C217.34 25.252 217.648 25.028 218.008 24.868C218.368 24.7 218.764 24.616 219.196 24.616C219.724 24.616 220.152 24.728 220.48 24.952C220.808 25.168 221.064 25.428 221.248 25.732V24.724H222.244V30.58C222.244 31.036 222.168 31.432 222.016 31.768C221.864 32.112 221.656 32.396 221.392 32.62C221.128 32.844 220.812 33.012 220.444 33.124C220.084 33.236 219.684 33.292 219.244 33.292ZM219.232 29.968C219.52 29.968 219.788 29.92 220.036 29.824C220.292 29.72 220.512 29.576 220.696 29.392C220.88 29.2 221.024 28.968 221.128 28.696C221.232 28.416 221.284 28.1 221.284 27.748V27.664C221.284 26.96 221.104 26.416 220.744 26.032C220.392 25.64 219.908 25.444 219.292 25.444C218.98 25.444 218.7 25.5 218.452 25.612C218.204 25.724 217.996 25.88 217.828 26.08C217.66 26.272 217.528 26.508 217.432 26.788C217.344 27.06 217.3 27.36 217.3 27.688V27.784C217.3 28.128 217.352 28.436 217.456 28.708C217.56 28.972 217.696 29.2 217.864 29.392C218.04 29.576 218.244 29.72 218.476 29.824C218.716 29.92 218.968 29.968 219.232 29.968ZM224.424 24.724H225.42V31H224.424V24.724ZM224.904 23.416C224.72 23.416 224.564 23.352 224.436 23.224C224.308 23.096 224.244 22.94 224.244 22.756C224.244 22.572 224.308 22.416 224.436 22.288C224.564 22.16 224.72 22.096 224.904 22.096C225.088 22.096 225.244 22.16 225.372 22.288C225.5 22.416 225.564 22.572 225.564 22.756C225.564 22.94 225.5 23.096 225.372 23.224C225.244 23.352 225.088 23.416 224.904 23.416ZM229.508 31.084C228.932 31.084 228.504 30.932 228.224 30.628C227.952 30.324 227.816 29.924 227.816 29.428V25.564H226.916V24.724H227.816V23.296H228.812V24.724H230.276V25.564H228.812V29.332C228.812 29.94 229.072 30.244 229.592 30.244C229.752 30.244 229.892 30.232 230.012 30.208C230.132 30.184 230.248 30.152 230.36 30.112V30.952C230.256 30.992 230.14 31.024 230.012 31.048C229.884 31.072 229.716 31.084 229.508 31.084ZM233.636 31.108C233.348 31.108 233.076 31.072 232.82 31C232.564 30.928 232.34 30.816 232.148 30.664C231.964 30.512 231.816 30.32 231.704 30.088C231.6 29.856 231.548 29.58 231.548 29.26C231.548 28.9 231.636 28.596 231.812 28.348C231.988 28.1 232.22 27.9 232.508 27.748C232.804 27.596 233.14 27.488 233.516 27.424C233.9 27.352 234.292 27.316 234.692 27.316H235.592V26.86C235.592 26.356 235.488 25.996 235.28 25.78C235.072 25.556 234.728 25.444 234.248 25.444C233.384 25.444 232.904 25.82 232.808 26.572H231.812C231.844 26.212 231.932 25.908 232.076 25.66C232.228 25.412 232.416 25.212 232.64 25.06C232.872 24.9 233.128 24.788 233.408 24.724C233.696 24.652 233.992 24.616 234.296 24.616C234.592 24.616 234.88 24.652 235.16 24.724C235.44 24.788 235.684 24.908 235.892 25.084C236.1 25.252 236.268 25.48 236.396 25.768C236.524 26.056 236.588 26.42 236.588 26.86V31H235.592V30.208C235.36 30.504 235.092 30.728 234.788 30.88C234.484 31.032 234.1 31.108 233.636 31.108ZM233.732 30.316C233.996 30.316 234.24 30.284 234.464 30.22C234.696 30.148 234.892 30.048 235.052 29.92C235.22 29.792 235.352 29.636 235.448 29.452C235.544 29.26 235.592 29.044 235.592 28.804V28.024H234.728C234.416 28.024 234.124 28.048 233.852 28.096C233.588 28.136 233.356 28.204 233.156 28.3C232.964 28.396 232.812 28.524 232.7 28.684C232.596 28.836 232.544 29.028 232.544 29.26C232.544 29.588 232.632 29.848 232.808 30.04C232.984 30.224 233.292 30.316 233.732 30.316ZM238.709 21.724H239.717V31H238.709V21.724ZM247.676 31.108C247.236 31.108 246.828 31.036 246.452 30.892C246.084 30.74 245.76 30.528 245.48 30.256C245.208 29.976 244.992 29.64 244.832 29.248C244.68 28.856 244.604 28.416 244.604 27.928V27.832C244.604 27.352 244.684 26.916 244.844 26.524C245.004 26.124 245.22 25.784 245.492 25.504C245.772 25.224 246.096 25.008 246.464 24.856C246.832 24.696 247.228 24.616 247.652 24.616C247.98 24.616 248.296 24.656 248.6 24.736C248.912 24.816 249.188 24.944 249.428 25.12C249.676 25.288 249.884 25.512 250.052 25.792C250.22 26.072 250.328 26.412 250.376 26.812H249.392C249.312 26.316 249.108 25.964 248.78 25.756C248.46 25.548 248.084 25.444 247.652 25.444C247.364 25.444 247.096 25.5 246.848 25.612C246.608 25.724 246.396 25.884 246.212 26.092C246.036 26.292 245.896 26.54 245.792 26.836C245.688 27.132 245.636 27.464 245.636 27.832V27.928C245.636 28.704 245.824 29.292 246.2 29.692C246.584 30.084 247.08 30.28 247.688 30.28C247.912 30.28 248.124 30.248 248.324 30.184C248.532 30.12 248.716 30.024 248.876 29.896C249.044 29.768 249.18 29.608 249.284 29.416C249.396 29.224 249.464 29 249.488 28.744H250.412C250.38 29.08 250.288 29.396 250.136 29.692C249.992 29.98 249.8 30.228 249.56 30.436C249.32 30.644 249.04 30.808 248.72 30.928C248.4 31.048 248.052 31.108 247.676 31.108ZM254.673 30.28C254.985 30.28 255.269 30.224 255.525 30.112C255.781 30 255.997 29.84 256.173 29.632C256.349 29.424 256.485 29.176 256.581 28.888C256.677 28.592 256.725 28.268 256.725 27.916V27.832C256.725 27.472 256.677 27.144 256.581 26.848C256.485 26.552 256.345 26.3 256.161 26.092C255.985 25.884 255.769 25.724 255.513 25.612C255.265 25.5 254.985 25.444 254.673 25.444C254.361 25.444 254.077 25.5 253.821 25.612C253.565 25.724 253.349 25.884 253.173 26.092C252.997 26.3 252.861 26.552 252.765 26.848C252.669 27.136 252.621 27.46 252.621 27.82V27.916C252.621 28.636 252.801 29.212 253.161 29.644C253.529 30.068 254.033 30.28 254.673 30.28ZM254.661 31.108C254.213 31.108 253.801 31.028 253.425 30.868C253.049 30.708 252.725 30.488 252.453 30.208C252.181 29.92 251.969 29.58 251.817 29.188C251.665 28.796 251.589 28.372 251.589 27.916V27.82C251.589 27.348 251.665 26.916 251.817 26.524C251.977 26.132 252.193 25.796 252.465 25.516C252.737 25.228 253.061 25.008 253.437 24.856C253.813 24.696 254.225 24.616 254.673 24.616C255.113 24.616 255.521 24.696 255.897 24.856C256.281 25.008 256.609 25.224 256.881 25.504C257.153 25.784 257.365 26.12 257.517 26.512C257.677 26.904 257.757 27.336 257.757 27.808V27.904C257.757 28.376 257.677 28.812 257.517 29.212C257.365 29.604 257.149 29.94 256.869 30.22C256.597 30.5 256.273 30.72 255.897 30.88C255.521 31.032 255.109 31.108 254.661 31.108ZM259.451 24.724H260.447V25.72C260.591 25.424 260.831 25.168 261.167 24.952C261.511 24.728 261.943 24.616 262.463 24.616C262.783 24.616 263.079 24.664 263.351 24.76C263.623 24.848 263.855 24.996 264.047 25.204C264.247 25.404 264.399 25.664 264.503 25.984C264.615 26.304 264.671 26.692 264.671 27.148V31H263.675V27.076C263.675 26.524 263.555 26.12 263.315 25.864C263.075 25.608 262.703 25.48 262.199 25.48C261.967 25.48 261.743 25.516 261.527 25.588C261.319 25.66 261.135 25.768 260.975 25.912C260.815 26.056 260.687 26.236 260.591 26.452C260.495 26.668 260.447 26.916 260.447 27.196V31H259.451V24.724ZM268.683 31.084C268.107 31.084 267.679 30.932 267.399 30.628C267.127 30.324 266.991 29.924 266.991 29.428V25.564H266.091V24.724H266.991V23.296H267.987V24.724H269.451V25.564H267.987V29.332C267.987 29.94 268.247 30.244 268.767 30.244C268.927 30.244 269.067 30.232 269.187 30.208C269.307 30.184 269.423 30.152 269.535 30.112V30.952C269.431 30.992 269.315 31.024 269.187 31.048C269.059 31.072 268.891 31.084 268.683 31.084ZM273.75 31.108C273.302 31.108 272.894 31.032 272.526 30.88C272.158 30.728 271.838 30.516 271.566 30.244C271.294 29.964 271.082 29.628 270.93 29.236C270.786 28.844 270.714 28.408 270.714 27.928V27.832C270.714 27.36 270.786 26.928 270.93 26.536C271.074 26.136 271.274 25.796 271.53 25.516C271.794 25.228 272.106 25.008 272.466 24.856C272.826 24.696 273.222 24.616 273.654 24.616C274.014 24.616 274.362 24.676 274.698 24.796C275.042 24.908 275.346 25.088 275.61 25.336C275.874 25.584 276.082 25.908 276.234 26.308C276.394 26.7 276.474 27.176 276.474 27.736V28.06H271.746C271.77 28.78 271.95 29.332 272.286 29.716C272.622 30.092 273.114 30.28 273.762 30.28C274.746 30.28 275.302 29.916 275.43 29.188H276.426C276.314 29.82 276.018 30.3 275.538 30.628C275.058 30.948 274.462 31.108 273.75 31.108ZM275.454 27.256C275.406 26.608 275.222 26.144 274.902 25.864C274.59 25.584 274.174 25.444 273.654 25.444C273.142 25.444 272.722 25.608 272.394 25.936C272.074 26.256 271.87 26.696 271.782 27.256H275.454ZM278.143 24.724H279.139V25.72C279.283 25.424 279.523 25.168 279.859 24.952C280.203 24.728 280.635 24.616 281.155 24.616C281.475 24.616 281.771 24.664 282.043 24.76C282.315 24.848 282.547 24.996 282.739 25.204C282.939 25.404 283.091 25.664 283.195 25.984C283.307 26.304 283.363 26.692 283.363 27.148V31H282.367V27.076C282.367 26.524 282.247 26.12 282.007 25.864C281.767 25.608 281.395 25.48 280.891 25.48C280.659 25.48 280.435 25.516 280.219 25.588C280.011 25.66 279.827 25.768 279.667 25.912C279.507 26.056 279.379 26.236 279.283 26.452C279.187 26.668 279.139 26.916 279.139 27.196V31H278.143V24.724ZM287.375 31.084C286.799 31.084 286.371 30.932 286.091 30.628C285.819 30.324 285.683 29.924 285.683 29.428V25.564H284.783V24.724H285.683V23.296H286.679V24.724H288.143V25.564H286.679V29.332C286.679 29.94 286.939 30.244 287.459 30.244C287.619 30.244 287.759 30.232 287.879 30.208C287.999 30.184 288.115 30.152 288.227 30.112V30.952C288.123 30.992 288.007 31.024 287.879 31.048C287.751 31.072 287.583 31.084 287.375 31.084ZM290.557 31.06C290.349 31.06 290.169 30.988 290.017 30.844C289.865 30.692 289.789 30.508 289.789 30.292C289.789 30.076 289.865 29.896 290.017 29.752C290.169 29.6 290.349 29.524 290.557 29.524C290.765 29.524 290.945 29.6 291.097 29.752C291.249 29.896 291.325 30.076 291.325 30.292C291.325 30.508 291.249 30.692 291.097 30.844C290.945 30.988 290.765 31.06 290.557 31.06Z" fill="black"/>
<path d="M1108.46 17.42H1109.82L1112.73 26H1111.7L1110.86 23.528H1107.32L1106.49 26H1105.5L1108.46 17.42ZM1107.6 22.7H1110.58L1109.09 18.284L1107.6 22.7ZM1114.33 16.724H1115.34V26H1114.33V16.724ZM1117.54 16.724H1118.55V26H1117.54V16.724ZM1123.9 19.724H1124.9V20.852C1125 20.676 1125.1 20.516 1125.22 20.372C1125.35 20.22 1125.5 20.092 1125.66 19.988C1125.82 19.876 1126 19.788 1126.22 19.724C1126.44 19.66 1126.68 19.624 1126.96 19.616V20.552C1126.65 20.568 1126.37 20.608 1126.11 20.672C1125.86 20.736 1125.64 20.844 1125.45 20.996C1125.28 21.148 1125.14 21.352 1125.04 21.608C1124.95 21.856 1124.9 22.172 1124.9 22.556V26H1123.9V19.724ZM1128.58 19.724H1129.58V26H1128.58V19.724ZM1129.06 18.416C1128.88 18.416 1128.72 18.352 1128.59 18.224C1128.46 18.096 1128.4 17.94 1128.4 17.756C1128.4 17.572 1128.46 17.416 1128.59 17.288C1128.72 17.16 1128.88 17.096 1129.06 17.096C1129.24 17.096 1129.4 17.16 1129.53 17.288C1129.66 17.416 1129.72 17.572 1129.72 17.756C1129.72 17.94 1129.66 18.096 1129.53 18.224C1129.4 18.352 1129.24 18.416 1129.06 18.416ZM1134.26 28.292C1133.8 28.292 1133.4 28.24 1133.05 28.136C1132.72 28.032 1132.43 27.892 1132.2 27.716C1131.98 27.548 1131.8 27.344 1131.67 27.104C1131.54 26.872 1131.46 26.624 1131.42 26.36H1132.44C1132.58 27.088 1133.19 27.452 1134.25 27.452C1134.87 27.452 1135.36 27.296 1135.72 26.984C1136.08 26.68 1136.27 26.192 1136.27 25.52V24.608C1136.18 24.76 1136.06 24.908 1135.91 25.052C1135.76 25.196 1135.6 25.324 1135.4 25.436C1135.22 25.54 1135.02 25.628 1134.8 25.7C1134.59 25.764 1134.37 25.796 1134.14 25.796C1133.74 25.796 1133.36 25.724 1133 25.58C1132.65 25.428 1132.35 25.22 1132.09 24.956C1131.84 24.692 1131.65 24.38 1131.5 24.02C1131.36 23.652 1131.29 23.252 1131.29 22.82V22.736C1131.29 22.312 1131.36 21.912 1131.5 21.536C1131.65 21.152 1131.85 20.82 1132.1 20.54C1132.36 20.252 1132.67 20.028 1133.03 19.868C1133.39 19.7 1133.78 19.616 1134.22 19.616C1134.74 19.616 1135.17 19.728 1135.5 19.952C1135.83 20.168 1136.08 20.428 1136.27 20.732V19.724H1137.26V25.58C1137.26 26.036 1137.19 26.432 1137.04 26.768C1136.88 27.112 1136.68 27.396 1136.41 27.62C1136.15 27.844 1135.83 28.012 1135.46 28.124C1135.1 28.236 1134.7 28.292 1134.26 28.292ZM1134.25 24.968C1134.54 24.968 1134.81 24.92 1135.06 24.824C1135.31 24.72 1135.53 24.576 1135.72 24.392C1135.9 24.2 1136.04 23.968 1136.15 23.696C1136.25 23.416 1136.3 23.1 1136.3 22.748V22.664C1136.3 21.96 1136.12 21.416 1135.76 21.032C1135.41 20.64 1134.93 20.444 1134.31 20.444C1134 20.444 1133.72 20.5 1133.47 20.612C1133.22 20.724 1133.02 20.88 1132.85 21.08C1132.68 21.272 1132.55 21.508 1132.45 21.788C1132.36 22.06 1132.32 22.36 1132.32 22.688V22.784C1132.32 23.128 1132.37 23.436 1132.48 23.708C1132.58 23.972 1132.72 24.2 1132.88 24.392C1133.06 24.576 1133.26 24.72 1133.5 24.824C1133.74 24.92 1133.99 24.968 1134.25 24.968ZM1139.42 16.724H1140.42V20.72C1140.56 20.424 1140.8 20.168 1141.14 19.952C1141.48 19.728 1141.91 19.616 1142.43 19.616C1142.75 19.616 1143.05 19.664 1143.32 19.76C1143.59 19.848 1143.82 19.996 1144.02 20.204C1144.22 20.404 1144.37 20.664 1144.47 20.984C1144.58 21.304 1144.64 21.692 1144.64 22.148V26H1143.64V22.076C1143.64 21.524 1143.52 21.12 1143.28 20.864C1143.04 20.608 1142.67 20.48 1142.17 20.48C1141.94 20.48 1141.71 20.516 1141.5 20.588C1141.29 20.66 1141.1 20.768 1140.94 20.912C1140.78 21.056 1140.66 21.236 1140.56 21.452C1140.46 21.668 1140.42 21.916 1140.42 22.196V26H1139.42V16.724ZM1148.65 26.084C1148.08 26.084 1147.65 25.932 1147.37 25.628C1147.1 25.324 1146.96 24.924 1146.96 24.428V20.564H1146.06V19.724H1146.96V18.296H1147.96V19.724H1149.42V20.564H1147.96V24.332C1147.96 24.94 1148.22 25.244 1148.74 25.244C1148.9 25.244 1149.04 25.232 1149.16 25.208C1149.28 25.184 1149.39 25.152 1149.5 25.112V25.952C1149.4 25.992 1149.28 26.024 1149.16 26.048C1149.03 26.072 1148.86 26.084 1148.65 26.084ZM1153.09 26.108C1152.34 26.108 1151.75 25.932 1151.32 25.58C1150.89 25.22 1150.67 24.716 1150.63 24.068H1151.61C1151.65 24.444 1151.77 24.74 1151.99 24.956C1152.21 25.172 1152.58 25.28 1153.08 25.28C1153.56 25.28 1153.91 25.2 1154.13 25.04C1154.34 24.872 1154.45 24.62 1154.45 24.284C1154.45 23.956 1154.33 23.72 1154.08 23.576C1153.84 23.432 1153.47 23.316 1152.99 23.228C1152.58 23.156 1152.23 23.072 1151.95 22.976C1151.67 22.872 1151.45 22.748 1151.28 22.604C1151.11 22.46 1150.99 22.288 1150.91 22.088C1150.84 21.888 1150.8 21.652 1150.8 21.38C1150.8 21.092 1150.87 20.84 1150.99 20.624C1151.12 20.4 1151.29 20.216 1151.49 20.072C1151.69 19.92 1151.92 19.808 1152.17 19.736C1152.43 19.656 1152.68 19.616 1152.93 19.616C1153.21 19.616 1153.47 19.648 1153.73 19.712C1153.99 19.768 1154.21 19.868 1154.41 20.012C1154.62 20.156 1154.79 20.344 1154.93 20.576C1155.07 20.808 1155.15 21.092 1155.19 21.428H1154.23C1154.16 21.084 1154.02 20.836 1153.81 20.684C1153.61 20.524 1153.31 20.444 1152.91 20.444C1152.55 20.444 1152.27 20.528 1152.05 20.696C1151.83 20.856 1151.73 21.072 1151.73 21.344C1151.73 21.488 1151.75 21.612 1151.79 21.716C1151.83 21.812 1151.91 21.9 1152.03 21.98C1152.14 22.052 1152.29 22.12 1152.47 22.184C1152.66 22.24 1152.9 22.292 1153.19 22.34C1153.51 22.404 1153.81 22.476 1154.08 22.556C1154.35 22.628 1154.58 22.732 1154.77 22.868C1154.97 22.996 1155.13 23.168 1155.23 23.384C1155.34 23.592 1155.4 23.864 1155.4 24.2C1155.4 24.776 1155.21 25.24 1154.82 25.592C1154.44 25.936 1153.86 26.108 1153.09 26.108ZM1160.23 19.724H1161.23V20.852C1161.32 20.676 1161.43 20.516 1161.55 20.372C1161.68 20.22 1161.82 20.092 1161.98 19.988C1162.14 19.876 1162.33 19.788 1162.55 19.724C1162.76 19.66 1163.01 19.624 1163.29 19.616V20.552C1162.98 20.568 1162.7 20.608 1162.44 20.672C1162.18 20.736 1161.96 20.844 1161.78 20.996C1161.6 21.148 1161.47 21.352 1161.37 21.608C1161.28 21.856 1161.23 22.172 1161.23 22.556V26H1160.23V19.724ZM1167.28 26.108C1166.83 26.108 1166.42 26.032 1166.05 25.88C1165.68 25.728 1165.36 25.516 1165.09 25.244C1164.82 24.964 1164.61 24.628 1164.46 24.236C1164.31 23.844 1164.24 23.408 1164.24 22.928V22.832C1164.24 22.36 1164.31 21.928 1164.46 21.536C1164.6 21.136 1164.8 20.796 1165.06 20.516C1165.32 20.228 1165.63 20.008 1165.99 19.856C1166.35 19.696 1166.75 19.616 1167.18 19.616C1167.54 19.616 1167.89 19.676 1168.22 19.796C1168.57 19.908 1168.87 20.088 1169.14 20.336C1169.4 20.584 1169.61 20.908 1169.76 21.308C1169.92 21.7 1170 22.176 1170 22.736V23.06H1165.27C1165.3 23.78 1165.48 24.332 1165.81 24.716C1166.15 25.092 1166.64 25.28 1167.29 25.28C1168.27 25.28 1168.83 24.916 1168.96 24.188H1169.95C1169.84 24.82 1169.54 25.3 1169.06 25.628C1168.58 25.948 1167.99 26.108 1167.28 26.108ZM1168.98 22.256C1168.93 21.608 1168.75 21.144 1168.43 20.864C1168.12 20.584 1167.7 20.444 1167.18 20.444C1166.67 20.444 1166.25 20.608 1165.92 20.936C1165.6 21.256 1165.4 21.696 1165.31 22.256H1168.98ZM1173.67 26.108C1172.92 26.108 1172.33 25.932 1171.9 25.58C1171.47 25.22 1171.24 24.716 1171.21 24.068H1172.18C1172.22 24.444 1172.35 24.74 1172.57 24.956C1172.79 25.172 1173.16 25.28 1173.66 25.28C1174.14 25.28 1174.49 25.2 1174.7 25.04C1174.92 24.872 1175.03 24.62 1175.03 24.284C1175.03 23.956 1174.9 23.72 1174.66 23.576C1174.42 23.432 1174.05 23.316 1173.56 23.228C1173.16 23.156 1172.81 23.072 1172.53 22.976C1172.25 22.872 1172.03 22.748 1171.86 22.604C1171.69 22.46 1171.57 22.288 1171.49 22.088C1171.42 21.888 1171.38 21.652 1171.38 21.38C1171.38 21.092 1171.44 20.84 1171.57 20.624C1171.7 20.4 1171.86 20.216 1172.06 20.072C1172.27 19.92 1172.5 19.808 1172.75 19.736C1173 19.656 1173.26 19.616 1173.5 19.616C1173.78 19.616 1174.05 19.648 1174.31 19.712C1174.56 19.768 1174.79 19.868 1174.99 20.012C1175.2 20.156 1175.37 20.344 1175.51 20.576C1175.64 20.808 1175.73 21.092 1175.77 21.428H1174.81C1174.74 21.084 1174.6 20.836 1174.39 20.684C1174.19 20.524 1173.89 20.444 1173.49 20.444C1173.13 20.444 1172.84 20.528 1172.63 20.696C1172.41 20.856 1172.3 21.072 1172.3 21.344C1172.3 21.488 1172.32 21.612 1172.36 21.716C1172.41 21.812 1172.49 21.9 1172.6 21.98C1172.72 22.052 1172.86 22.12 1173.05 22.184C1173.24 22.24 1173.48 22.292 1173.77 22.34C1174.09 22.404 1174.38 22.476 1174.66 22.556C1174.93 22.628 1175.16 22.732 1175.35 22.868C1175.55 22.996 1175.7 23.168 1175.81 23.384C1175.92 23.592 1175.98 23.864 1175.98 24.2C1175.98 24.776 1175.78 25.24 1175.4 25.592C1175.02 25.936 1174.44 26.108 1173.67 26.108ZM1180.2 26.108C1179.75 26.108 1179.35 26.032 1178.98 25.88C1178.61 25.728 1178.29 25.516 1178.02 25.244C1177.75 24.964 1177.53 24.628 1177.38 24.236C1177.24 23.844 1177.17 23.408 1177.17 22.928V22.832C1177.17 22.36 1177.24 21.928 1177.38 21.536C1177.53 21.136 1177.73 20.796 1177.98 20.516C1178.25 20.228 1178.56 20.008 1178.92 19.856C1179.28 19.696 1179.67 19.616 1180.11 19.616C1180.47 19.616 1180.81 19.676 1181.15 19.796C1181.49 19.908 1181.8 20.088 1182.06 20.336C1182.33 20.584 1182.53 20.908 1182.69 21.308C1182.85 21.7 1182.93 22.176 1182.93 22.736V23.06H1178.2C1178.22 23.78 1178.4 24.332 1178.74 24.716C1179.07 25.092 1179.57 25.28 1180.21 25.28C1181.2 25.28 1181.75 24.916 1181.88 24.188H1182.88C1182.77 24.82 1182.47 25.3 1181.99 25.628C1181.51 25.948 1180.91 26.108 1180.2 26.108ZM1181.91 22.256C1181.86 21.608 1181.67 21.144 1181.35 20.864C1181.04 20.584 1180.63 20.444 1180.11 20.444C1179.59 20.444 1179.17 20.608 1178.85 20.936C1178.53 21.256 1178.32 21.696 1178.23 22.256H1181.91ZM1184.6 19.724H1185.59V20.852C1185.69 20.676 1185.8 20.516 1185.92 20.372C1186.04 20.22 1186.19 20.092 1186.35 19.988C1186.51 19.876 1186.7 19.788 1186.91 19.724C1187.13 19.66 1187.38 19.624 1187.66 19.616V20.552C1187.34 20.568 1187.06 20.608 1186.8 20.672C1186.55 20.736 1186.33 20.844 1186.14 20.996C1185.97 21.148 1185.83 21.352 1185.74 21.608C1185.64 21.856 1185.59 22.172 1185.59 22.556V26H1184.6V19.724ZM1188.6 19.724H1189.68L1191.54 24.992L1193.37 19.724H1194.41L1192.15 26H1190.88L1188.6 19.724ZM1198.25 26.108C1197.8 26.108 1197.39 26.032 1197.03 25.88C1196.66 25.728 1196.34 25.516 1196.07 25.244C1195.79 24.964 1195.58 24.628 1195.43 24.236C1195.29 23.844 1195.21 23.408 1195.21 22.928V22.832C1195.21 22.36 1195.29 21.928 1195.43 21.536C1195.57 21.136 1195.77 20.796 1196.03 20.516C1196.29 20.228 1196.61 20.008 1196.97 19.856C1197.33 19.696 1197.72 19.616 1198.15 19.616C1198.51 19.616 1198.86 19.676 1199.2 19.796C1199.54 19.908 1199.85 20.088 1200.11 20.336C1200.37 20.584 1200.58 20.908 1200.73 21.308C1200.89 21.7 1200.97 22.176 1200.97 22.736V23.06H1196.25C1196.27 23.78 1196.45 24.332 1196.79 24.716C1197.12 25.092 1197.61 25.28 1198.26 25.28C1199.25 25.28 1199.8 24.916 1199.93 24.188H1200.93C1200.81 24.82 1200.52 25.3 1200.04 25.628C1199.56 25.948 1198.96 26.108 1198.25 26.108ZM1199.95 22.256C1199.91 21.608 1199.72 21.144 1199.4 20.864C1199.09 20.584 1198.67 20.444 1198.15 20.444C1197.64 20.444 1197.22 20.608 1196.89 20.936C1196.57 21.256 1196.37 21.696 1196.28 22.256H1199.95ZM1205.01 26.108C1204.6 26.108 1204.22 26.04 1203.87 25.904C1203.52 25.76 1203.22 25.556 1202.97 25.292C1202.72 25.02 1202.52 24.692 1202.38 24.308C1202.24 23.916 1202.17 23.476 1202.17 22.988V22.892C1202.17 22.412 1202.25 21.972 1202.39 21.572C1202.53 21.172 1202.73 20.828 1202.99 20.54C1203.25 20.244 1203.55 20.016 1203.91 19.856C1204.27 19.696 1204.67 19.616 1205.1 19.616C1205.63 19.616 1206.06 19.728 1206.39 19.952C1206.71 20.168 1206.97 20.428 1207.15 20.732V16.724H1208.15V26H1207.15V24.92C1207.07 25.072 1206.95 25.22 1206.79 25.364C1206.64 25.508 1206.47 25.636 1206.28 25.748C1206.09 25.852 1205.89 25.936 1205.67 26C1205.45 26.072 1205.23 26.108 1205.01 26.108ZM1205.11 25.28C1205.4 25.28 1205.67 25.232 1205.93 25.136C1206.19 25.04 1206.41 24.896 1206.59 24.704C1206.77 24.504 1206.92 24.256 1207.02 23.96C1207.13 23.656 1207.19 23.304 1207.19 22.904V22.808C1207.19 22 1207.01 21.404 1206.65 21.02C1206.3 20.636 1205.81 20.444 1205.2 20.444C1204.57 20.444 1204.09 20.652 1203.73 21.068C1203.38 21.484 1203.21 22.076 1203.21 22.844V22.94C1203.21 23.34 1203.25 23.688 1203.35 23.984C1203.45 24.272 1203.59 24.512 1203.76 24.704C1203.93 24.896 1204.14 25.04 1204.37 25.136C1204.6 25.232 1204.85 25.28 1205.11 25.28ZM1210.99 26.06C1210.78 26.06 1210.6 25.988 1210.45 25.844C1210.3 25.692 1210.22 25.508 1210.22 25.292C1210.22 25.076 1210.3 24.896 1210.45 24.752C1210.6 24.6 1210.78 24.524 1210.99 24.524C1211.2 24.524 1211.38 24.6 1211.53 24.752C1211.68 24.896 1211.76 25.076 1211.76 25.292C1211.76 25.508 1211.68 25.692 1211.53 25.844C1211.38 25.988 1211.2 26.06 1210.99 26.06Z" fill="black"/>
<path d="M1110.15 9.14C1109.42 9.14 1108.85 8.928 1108.44 8.504C1108.04 8.072 1107.84 7.492 1107.84 6.764V6.668C1107.84 6.308 1107.9 5.984 1108.01 5.696C1108.13 5.4 1108.29 5.148 1108.49 4.94C1108.7 4.732 1108.94 4.572 1109.22 4.46C1109.5 4.34 1109.81 4.28 1110.15 4.28C1110.42 4.28 1110.67 4.316 1110.9 4.388C1111.14 4.452 1111.35 4.552 1111.53 4.688C1111.71 4.824 1111.86 4.996 1111.97 5.204C1112.08 5.412 1112.15 5.656 1112.18 5.936H1111.26C1111.17 5.312 1110.8 5 1110.15 5C1109.73 5 1109.4 5.148 1109.15 5.444C1108.91 5.732 1108.79 6.14 1108.79 6.668V6.752C1108.79 7.28 1108.91 7.688 1109.14 7.976C1109.38 8.264 1109.72 8.408 1110.15 8.408C1110.48 8.408 1110.75 8.328 1110.96 8.168C1111.18 8 1111.31 7.748 1111.36 7.412H1112.22C1112.16 7.988 1111.94 8.42 1111.56 8.708C1111.19 8.996 1110.72 9.14 1110.15 9.14ZM1110.12 10.604C1110.64 10.604 1111.12 10.508 1111.59 10.316C1112.05 10.124 1112.46 9.856 1112.81 9.512C1113.16 9.168 1113.44 8.756 1113.65 8.276C1113.86 7.796 1113.96 7.268 1113.96 6.692C1113.96 6.124 1113.86 5.604 1113.65 5.132C1113.45 4.652 1113.18 4.244 1112.82 3.908C1112.48 3.564 1112.08 3.296 1111.61 3.104C1111.16 2.912 1110.67 2.816 1110.15 2.816C1109.62 2.816 1109.12 2.912 1108.66 3.104C1108.2 3.296 1107.79 3.564 1107.44 3.908C1107.09 4.252 1106.82 4.664 1106.61 5.144C1106.41 5.616 1106.31 6.14 1106.31 6.716C1106.31 7.292 1106.41 7.82 1106.62 8.3C1106.83 8.78 1107.11 9.192 1107.46 9.536C1107.81 9.872 1108.22 10.136 1108.67 10.328C1109.14 10.512 1109.62 10.604 1110.12 10.604ZM1110.12 11.108C1109.52 11.108 1108.94 10.996 1108.41 10.772C1107.87 10.548 1107.4 10.24 1107 9.848C1106.61 9.448 1106.3 8.984 1106.07 8.456C1105.84 7.92 1105.73 7.34 1105.73 6.716C1105.73 6.108 1105.84 5.536 1106.07 5C1106.3 4.464 1106.61 3.996 1107 3.596C1107.4 3.196 1107.87 2.884 1108.41 2.66C1108.95 2.428 1109.53 2.312 1110.15 2.312C1110.77 2.312 1111.35 2.428 1111.89 2.66C1112.42 2.884 1112.89 3.196 1113.28 3.596C1113.67 3.988 1113.98 4.452 1114.2 4.988C1114.43 5.516 1114.54 6.084 1114.54 6.692C1114.54 7.316 1114.42 7.9 1114.19 8.444C1113.97 8.98 1113.66 9.448 1113.26 9.848C1112.86 10.24 1112.4 10.548 1111.85 10.772C1111.32 10.996 1110.74 11.108 1110.12 11.108ZM1115.58 10.76L1118.99 7.172C1119.38 6.756 1119.68 6.348 1119.9 5.948C1120.11 5.548 1120.22 5.128 1120.22 4.688C1120.22 4.208 1120.09 3.832 1119.81 3.56C1119.55 3.288 1119.17 3.152 1118.69 3.152C1118.18 3.152 1117.77 3.3 1117.46 3.596C1117.16 3.892 1116.96 4.38 1116.87 5.06H1115.9C1115.93 4.644 1116.02 4.268 1116.15 3.932C1116.3 3.588 1116.49 3.296 1116.73 3.056C1116.97 2.816 1117.25 2.632 1117.58 2.504C1117.91 2.376 1118.28 2.312 1118.69 2.312C1119.08 2.312 1119.43 2.368 1119.75 2.48C1120.07 2.592 1120.35 2.756 1120.57 2.972C1120.8 3.18 1120.98 3.432 1121.1 3.728C1121.22 4.024 1121.28 4.356 1121.28 4.724C1121.28 5.252 1121.12 5.776 1120.81 6.296C1120.5 6.808 1120.08 7.324 1119.55 7.844L1117.19 10.148H1121.33V11H1115.58V10.76ZM1126.22 10.244C1126.97 10.244 1127.53 9.964 1127.91 9.404C1128.29 8.844 1128.48 8.016 1128.48 6.92V6.44C1128.48 5.944 1128.43 5.496 1128.33 5.096C1128.22 4.688 1128.07 4.34 1127.87 4.052C1127.68 3.764 1127.44 3.544 1127.15 3.392C1126.87 3.232 1126.55 3.152 1126.19 3.152C1125.46 3.152 1124.9 3.44 1124.49 4.016C1124.08 4.584 1123.88 5.4 1123.88 6.464V6.944C1123.88 8.032 1124.09 8.856 1124.51 9.416C1124.94 9.968 1125.5 10.244 1126.22 10.244ZM1126.22 11.108C1125.7 11.108 1125.24 11.008 1124.81 10.808C1124.4 10.608 1124.04 10.328 1123.74 9.968C1123.45 9.608 1123.22 9.172 1123.05 8.66C1122.89 8.148 1122.81 7.58 1122.81 6.956V6.476C1122.81 5.844 1122.88 5.272 1123.04 4.76C1123.2 4.248 1123.42 3.812 1123.71 3.452C1124 3.084 1124.36 2.804 1124.78 2.612C1125.19 2.412 1125.66 2.312 1126.19 2.312C1126.72 2.312 1127.19 2.412 1127.61 2.612C1128.02 2.812 1128.37 3.096 1128.65 3.464C1128.94 3.832 1129.16 4.272 1129.31 4.784C1129.46 5.288 1129.54 5.844 1129.54 6.452V6.932C1129.54 7.556 1129.46 8.124 1129.31 8.636C1129.17 9.148 1128.95 9.588 1128.66 9.956C1128.38 10.324 1128.04 10.608 1127.62 10.808C1127.21 11.008 1126.74 11.108 1126.22 11.108ZM1134.54 10.244C1135.29 10.244 1135.85 9.964 1136.23 9.404C1136.61 8.844 1136.8 8.016 1136.8 6.92V6.44C1136.8 5.944 1136.75 5.496 1136.65 5.096C1136.54 4.688 1136.39 4.34 1136.19 4.052C1136 3.764 1135.76 3.544 1135.47 3.392C1135.19 3.232 1134.87 3.152 1134.51 3.152C1133.78 3.152 1133.22 3.44 1132.81 4.016C1132.4 4.584 1132.2 5.4 1132.2 6.464V6.944C1132.2 8.032 1132.41 8.856 1132.83 9.416C1133.26 9.968 1133.82 10.244 1134.54 10.244ZM1134.54 11.108C1134.02 11.108 1133.56 11.008 1133.13 10.808C1132.72 10.608 1132.36 10.328 1132.06 9.968C1131.77 9.608 1131.54 9.172 1131.37 8.66C1131.21 8.148 1131.13 7.58 1131.13 6.956V6.476C1131.13 5.844 1131.2 5.272 1131.36 4.76C1131.52 4.248 1131.74 3.812 1132.03 3.452C1132.32 3.084 1132.68 2.804 1133.1 2.612C1133.51 2.412 1133.98 2.312 1134.51 2.312C1135.04 2.312 1135.51 2.412 1135.93 2.612C1136.34 2.812 1136.69 3.096 1136.97 3.464C1137.26 3.832 1137.48 4.272 1137.63 4.784C1137.78 5.288 1137.86 5.844 1137.86 6.452V6.932C1137.86 7.556 1137.78 8.124 1137.63 8.636C1137.49 9.148 1137.27 9.588 1136.98 9.956C1136.7 10.324 1136.36 10.608 1135.94 10.808C1135.53 11.008 1135.06 11.108 1134.54 11.108ZM1141.04 3.452L1139.12 4.832V3.86L1141.12 2.42H1142.09V11H1141.04V3.452ZM1144.38 7.232H1146.95V8.168H1144.38V7.232ZM1147.86 10.76L1151.27 7.172C1151.66 6.756 1151.97 6.348 1152.18 5.948C1152.4 5.548 1152.51 5.128 1152.51 4.688C1152.51 4.208 1152.37 3.832 1152.1 3.56C1151.83 3.288 1151.46 3.152 1150.97 3.152C1150.47 3.152 1150.06 3.3 1149.75 3.596C1149.44 3.892 1149.25 4.38 1149.16 5.06H1148.19C1148.22 4.644 1148.3 4.268 1148.44 3.932C1148.58 3.588 1148.77 3.296 1149.01 3.056C1149.25 2.816 1149.54 2.632 1149.87 2.504C1150.19 2.376 1150.56 2.312 1150.97 2.312C1151.36 2.312 1151.72 2.368 1152.04 2.48C1152.36 2.592 1152.63 2.756 1152.85 2.972C1153.09 3.18 1153.26 3.432 1153.38 3.728C1153.5 4.024 1153.56 4.356 1153.56 4.724C1153.56 5.252 1153.41 5.776 1153.09 6.296C1152.78 6.808 1152.36 7.324 1151.83 7.844L1149.47 10.148H1153.61V11H1147.86V10.76ZM1158.5 10.244C1159.25 10.244 1159.82 9.964 1160.19 9.404C1160.58 8.844 1160.77 8.016 1160.77 6.92V6.44C1160.77 5.944 1160.72 5.496 1160.61 5.096C1160.51 4.688 1160.36 4.34 1160.16 4.052C1159.96 3.764 1159.72 3.544 1159.44 3.392C1159.16 3.232 1158.84 3.152 1158.48 3.152C1157.75 3.152 1157.18 3.44 1156.77 4.016C1156.36 4.584 1156.16 5.4 1156.16 6.464V6.944C1156.16 8.032 1156.37 8.856 1156.8 9.416C1157.22 9.968 1157.79 10.244 1158.5 10.244ZM1158.5 11.108C1157.99 11.108 1157.52 11.008 1157.1 10.808C1156.68 10.608 1156.32 10.328 1156.03 9.968C1155.73 9.608 1155.5 9.172 1155.33 8.66C1155.17 8.148 1155.09 7.58 1155.09 6.956V6.476C1155.09 5.844 1155.17 5.272 1155.32 4.76C1155.48 4.248 1155.7 3.812 1155.99 3.452C1156.29 3.084 1156.64 2.804 1157.06 2.612C1157.48 2.412 1157.95 2.312 1158.48 2.312C1159 2.312 1159.48 2.412 1159.89 2.612C1160.31 2.812 1160.66 3.096 1160.94 3.464C1161.22 3.832 1161.44 4.272 1161.6 4.784C1161.75 5.288 1161.82 5.844 1161.82 6.452V6.932C1161.82 7.556 1161.75 8.124 1161.6 8.636C1161.45 9.148 1161.24 9.588 1160.95 9.956C1160.67 10.324 1160.32 10.608 1159.9 10.808C1159.5 11.008 1159.03 11.108 1158.5 11.108ZM1162.92 10.76L1166.33 7.172C1166.72 6.756 1167.03 6.348 1167.24 5.948C1167.46 5.548 1167.57 5.128 1167.57 4.688C1167.57 4.208 1167.43 3.832 1167.16 3.56C1166.89 3.288 1166.52 3.152 1166.03 3.152C1165.53 3.152 1165.12 3.3 1164.81 3.596C1164.5 3.892 1164.31 4.38 1164.22 5.06H1163.25C1163.28 4.644 1163.36 4.268 1163.5 3.932C1163.64 3.588 1163.83 3.296 1164.07 3.056C1164.31 2.816 1164.6 2.632 1164.93 2.504C1165.25 2.376 1165.62 2.312 1166.03 2.312C1166.42 2.312 1166.78 2.368 1167.1 2.48C1167.42 2.592 1167.69 2.756 1167.91 2.972C1168.15 3.18 1168.32 3.432 1168.44 3.728C1168.56 4.024 1168.62 4.356 1168.62 4.724C1168.62 5.252 1168.47 5.776 1168.15 6.296C1167.84 6.808 1167.42 7.324 1166.89 7.844L1164.53 10.148H1168.67V11H1162.92V10.76ZM1173.56 10.244C1174.31 10.244 1174.88 9.964 1175.25 9.404C1175.64 8.844 1175.83 8.016 1175.83 6.92V6.44C1175.83 5.944 1175.78 5.496 1175.67 5.096C1175.57 4.688 1175.42 4.34 1175.22 4.052C1175.02 3.764 1174.78 3.544 1174.5 3.392C1174.22 3.232 1173.9 3.152 1173.54 3.152C1172.81 3.152 1172.24 3.44 1171.83 4.016C1171.42 4.584 1171.22 5.4 1171.22 6.464V6.944C1171.22 8.032 1171.43 8.856 1171.86 9.416C1172.28 9.968 1172.85 10.244 1173.56 10.244ZM1173.56 11.108C1173.05 11.108 1172.58 11.008 1172.16 10.808C1171.74 10.608 1171.38 10.328 1171.09 9.968C1170.79 9.608 1170.56 9.172 1170.39 8.66C1170.23 8.148 1170.15 7.58 1170.15 6.956V6.476C1170.15 5.844 1170.23 5.272 1170.38 4.76C1170.54 4.248 1170.76 3.812 1171.05 3.452C1171.35 3.084 1171.7 2.804 1172.12 2.612C1172.54 2.412 1173.01 2.312 1173.54 2.312C1174.06 2.312 1174.54 2.412 1174.95 2.612C1175.37 2.812 1175.72 3.096 1176 3.464C1176.28 3.832 1176.5 4.272 1176.66 4.784C1176.81 5.288 1176.88 5.844 1176.88 6.452V6.932C1176.88 7.556 1176.81 8.124 1176.66 8.636C1176.51 9.148 1176.3 9.588 1176.01 9.956C1175.73 10.324 1175.38 10.608 1174.96 10.808C1174.56 11.008 1174.09 11.108 1173.56 11.108Z" fill="black"/>
<defs>
<clipPath id="clip0_1_369">
<rect width="90" height="21" fill="white" transform="translate(0 5)"/>
</clipPath>
<clipPath id="clip1_1_369">
<rect width="90" height="21" fill="white" transform="translate(0 5)"/>
</clipPath>
</defs>
</svg>
