<svg width="72" height="10" viewBox="0 0 72 10" fill="none" xmlns="http://www.w3.org/2000/svg">
<path d="M5.148 7.14C4.42 7.14 3.852 6.928 3.444 6.504C3.044 6.072 2.844 5.492 2.844 4.764V4.668C2.844 4.308 2.9 3.984 3.012 3.696C3.132 3.4 3.292 3.148 3.492 2.94C3.7 2.732 3.944 2.572 4.224 2.46C4.504 2.34 4.812 2.28 5.148 2.28C5.42 2.28 5.672 2.316 5.904 2.388C6.144 2.452 6.352 2.552 6.528 2.688C6.712 2.824 6.86 2.996 6.972 3.204C7.084 3.412 7.152 3.656 7.176 3.936H6.264C6.168 3.312 5.796 3 5.148 3C4.732 3 4.4 3.148 4.152 3.444C3.912 3.732 3.792 4.14 3.792 4.668V4.752C3.792 5.28 3.908 5.688 4.14 5.976C4.38 6.264 4.716 6.408 5.148 6.408C5.476 6.408 5.748 6.328 5.964 6.168C6.18 6 6.312 5.748 6.36 5.412H7.224C7.16 5.988 6.94 6.42 6.564 6.708C6.188 6.996 5.716 7.14 5.148 7.14ZM5.124 8.604C5.636 8.604 6.124 8.508 6.588 8.316C7.052 8.124 7.46 7.856 7.812 7.512C8.164 7.168 8.444 6.756 8.652 6.276C8.86 5.796 8.964 5.268 8.964 4.692C8.964 4.124 8.86 3.604 8.652 3.132C8.452 2.652 8.176 2.244 7.824 1.908C7.48 1.564 7.076 1.296 6.612 1.104C6.156 0.911999 5.668 0.816 5.148 0.816C4.62 0.816 4.124 0.911999 3.66 1.104C3.196 1.296 2.788 1.564 2.436 1.908C2.092 2.252 1.816 2.664 1.608 3.144C1.408 3.616 1.308 4.14 1.308 4.716C1.308 5.292 1.412 5.82 1.62 6.3C1.828 6.78 2.108 7.192 2.46 7.536C2.812 7.872 3.216 8.136 3.672 8.328C4.136 8.512 4.62 8.604 5.124 8.604ZM5.124 9.108C4.516 9.108 3.944 8.996 3.408 8.772C2.872 8.548 2.404 8.24 2.004 7.848C1.612 7.448 1.3 6.984 1.068 6.456C0.844 5.92 0.732 5.34 0.732 4.716C0.732 4.108 0.844 3.536 1.068 3C1.3 2.464 1.612 1.996 2.004 1.596C2.404 1.196 2.872 0.883999 3.408 0.659999C3.952 0.427999 4.532 0.312 5.148 0.312C5.772 0.312 6.352 0.427999 6.888 0.659999C7.424 0.883999 7.888 1.196 8.28 1.596C8.672 1.988 8.98 2.452 9.204 2.988C9.428 3.516 9.54 4.084 9.54 4.692C9.54 5.316 9.424 5.9 9.192 6.444C8.968 6.98 8.656 7.448 8.256 7.848C7.864 8.24 7.396 8.548 6.852 8.772C6.316 8.996 5.74 9.108 5.124 9.108ZM10.5773 8.76L13.9853 5.172C14.3773 4.756 14.6813 4.348 14.8973 3.948C15.1133 3.548 15.2213 3.128 15.2213 2.688C15.2213 2.208 15.0853 1.832 14.8133 1.56C14.5493 1.288 14.1733 1.152 13.6853 1.152C13.1813 1.152 12.7733 1.3 12.4613 1.596C12.1573 1.892 11.9613 2.38 11.8733 3.06H10.9013C10.9333 2.644 11.0173 2.268 11.1533 1.932C11.2973 1.588 11.4893 1.296 11.7293 1.056C11.9693 0.816 12.2533 0.632 12.5813 0.504C12.9093 0.376 13.2773 0.312 13.6853 0.312C14.0773 0.312 14.4333 0.368 14.7533 0.48C15.0733 0.592 15.3453 0.756 15.5693 0.972C15.8013 1.18 15.9773 1.432 16.0973 1.728C16.2173 2.024 16.2773 2.356 16.2773 2.724C16.2773 3.252 16.1213 3.776 15.8093 4.296C15.4973 4.808 15.0773 5.324 14.5493 5.844L12.1853 8.148H16.3253V9H10.5773V8.76ZM21.2156 8.244C21.9676 8.244 22.5316 7.964 22.9076 7.404C23.2916 6.844 23.4836 6.016 23.4836 4.92V4.44C23.4836 3.944 23.4316 3.496 23.3276 3.096C23.2236 2.688 23.0716 2.34 22.8716 2.052C22.6796 1.764 22.4396 1.544 22.1516 1.392C21.8716 1.232 21.5516 1.152 21.1916 1.152C20.4636 1.152 19.8956 1.44 19.4876 2.016C19.0796 2.584 18.8756 3.4 18.8756 4.464V4.944C18.8756 6.032 19.0876 6.856 19.5116 7.416C19.9356 7.968 20.5036 8.244 21.2156 8.244ZM21.2156 9.108C20.7036 9.108 20.2356 9.008 19.8116 8.808C19.3956 8.608 19.0396 8.328 18.7436 7.968C18.4476 7.608 18.2156 7.172 18.0476 6.66C17.8876 6.148 17.8076 5.58 17.8076 4.956V4.476C17.8076 3.844 17.8836 3.272 18.0356 2.76C18.1956 2.248 18.4196 1.812 18.7076 1.452C19.0036 1.084 19.3596 0.804 19.7756 0.611999C20.1916 0.411999 20.6636 0.312 21.1916 0.312C21.7196 0.312 22.1916 0.411999 22.6076 0.611999C23.0236 0.812 23.3716 1.096 23.6516 1.464C23.9396 1.832 24.1596 2.272 24.3116 2.784C24.4636 3.288 24.5396 3.844 24.5396 4.452V4.932C24.5396 5.556 24.4636 6.124 24.3116 6.636C24.1676 7.148 23.9516 7.588 23.6636 7.956C23.3836 8.324 23.0356 8.608 22.6196 8.808C22.2116 9.008 21.7436 9.108 21.2156 9.108ZM29.5359 8.244C30.2879 8.244 30.8519 7.964 31.2279 7.404C31.6119 6.844 31.8039 6.016 31.8039 4.92V4.44C31.8039 3.944 31.7519 3.496 31.6479 3.096C31.5439 2.688 31.3919 2.34 31.1919 2.052C30.9999 1.764 30.7599 1.544 30.4719 1.392C30.1919 1.232 29.8719 1.152 29.5119 1.152C28.7839 1.152 28.2159 1.44 27.8079 2.016C27.3999 2.584 27.1959 3.4 27.1959 4.464V4.944C27.1959 6.032 27.4079 6.856 27.8319 7.416C28.2559 7.968 28.8239 8.244 29.5359 8.244ZM29.5359 9.108C29.0239 9.108 28.5559 9.008 28.1319 8.808C27.7159 8.608 27.3599 8.328 27.0639 7.968C26.7679 7.608 26.5359 7.172 26.3679 6.66C26.2079 6.148 26.1279 5.58 26.1279 4.956V4.476C26.1279 3.844 26.2039 3.272 26.3559 2.76C26.5159 2.248 26.7399 1.812 27.0279 1.452C27.3239 1.084 27.6799 0.804 28.0959 0.611999C28.5119 0.411999 28.9839 0.312 29.5119 0.312C30.0399 0.312 30.5119 0.411999 30.9279 0.611999C31.3439 0.812 31.6919 1.096 31.9719 1.464C32.2599 1.832 32.4799 2.272 32.6319 2.784C32.7839 3.288 32.8599 3.844 32.8599 4.452V4.932C32.8599 5.556 32.7839 6.124 32.6319 6.636C32.4879 7.148 32.2719 7.588 31.9839 7.956C31.7039 8.324 31.3559 8.608 30.9399 8.808C30.5319 9.008 30.0639 9.108 29.5359 9.108ZM36.0443 1.452L34.1243 2.832V1.86L36.1163 0.42H37.0883V9H36.0443V1.452ZM39.3818 5.232H41.9498V6.168H39.3818V5.232ZM42.8625 8.76L46.2705 5.172C46.6625 4.756 46.9665 4.348 47.1825 3.948C47.3985 3.548 47.5065 3.128 47.5065 2.688C47.5065 2.208 47.3705 1.832 47.0985 1.56C46.8345 1.288 46.4585 1.152 45.9705 1.152C45.4665 1.152 45.0585 1.3 44.7465 1.596C44.4425 1.892 44.2465 2.38 44.1585 3.06H43.1865C43.2185 2.644 43.3025 2.268 43.4385 1.932C43.5825 1.588 43.7745 1.296 44.0145 1.056C44.2545 0.816 44.5385 0.632 44.8665 0.504C45.1945 0.376 45.5625 0.312 45.9705 0.312C46.3625 0.312 46.7185 0.368 47.0385 0.48C47.3585 0.592 47.6305 0.756 47.8545 0.972C48.0865 1.18 48.2625 1.432 48.3825 1.728C48.5025 2.024 48.5625 2.356 48.5625 2.724C48.5625 3.252 48.4065 3.776 48.0945 4.296C47.7825 4.808 47.3625 5.324 46.8345 5.844L44.4705 8.148H48.6105V9H42.8625V8.76ZM53.5008 8.244C54.2528 8.244 54.8168 7.964 55.1928 7.404C55.5768 6.844 55.7688 6.016 55.7688 4.92V4.44C55.7688 3.944 55.7168 3.496 55.6128 3.096C55.5088 2.688 55.3568 2.34 55.1568 2.052C54.9648 1.764 54.7248 1.544 54.4368 1.392C54.1568 1.232 53.8368 1.152 53.4768 1.152C52.7488 1.152 52.1808 1.44 51.7728 2.016C51.3648 2.584 51.1608 3.4 51.1608 4.464V4.944C51.1608 6.032 51.3728 6.856 51.7968 7.416C52.2208 7.968 52.7888 8.244 53.5008 8.244ZM53.5008 9.108C52.9888 9.108 52.5208 9.008 52.0968 8.808C51.6808 8.608 51.3248 8.328 51.0288 7.968C50.7328 7.608 50.5008 7.172 50.3328 6.66C50.1728 6.148 50.0928 5.58 50.0928 4.956V4.476C50.0928 3.844 50.1688 3.272 50.3208 2.76C50.4808 2.248 50.7048 1.812 50.9928 1.452C51.2888 1.084 51.6448 0.804 52.0608 0.611999C52.4768 0.411999 52.9488 0.312 53.4768 0.312C54.0048 0.312 54.4768 0.411999 54.8928 0.611999C55.3088 0.812 55.6568 1.096 55.9368 1.464C56.2248 1.832 56.4448 2.272 56.5968 2.784C56.7488 3.288 56.8248 3.844 56.8248 4.452V4.932C56.8248 5.556 56.7488 6.124 56.5968 6.636C56.4528 7.148 56.2368 7.588 55.9488 7.956C55.6688 8.324 55.3208 8.608 54.9048 8.808C54.4968 9.008 54.0288 9.108 53.5008 9.108ZM57.9211 8.76L61.3291 5.172C61.7211 4.756 62.0251 4.348 62.2411 3.948C62.4571 3.548 62.5651 3.128 62.5651 2.688C62.5651 2.208 62.4291 1.832 62.1571 1.56C61.8931 1.288 61.5171 1.152 61.0291 1.152C60.5251 1.152 60.1171 1.3 59.8051 1.596C59.5011 1.892 59.3051 2.38 59.2171 3.06H58.2451C58.2771 2.644 58.3611 2.268 58.4971 1.932C58.6411 1.588 58.8331 1.296 59.0731 1.056C59.3131 0.816 59.5971 0.632 59.9251 0.504C60.2531 0.376 60.6211 0.312 61.0291 0.312C61.4211 0.312 61.7771 0.368 62.0971 0.48C62.4171 0.592 62.6891 0.756 62.9131 0.972C63.1451 1.18 63.3211 1.432 63.4411 1.728C63.5611 2.024 63.6211 2.356 63.6211 2.724C63.6211 3.252 63.4651 3.776 63.1531 4.296C62.8411 4.808 62.4211 5.324 61.8931 5.844L59.5291 8.148H63.6691V9H57.9211V8.76ZM68.5594 8.244C69.3114 8.244 69.8754 7.964 70.2514 7.404C70.6354 6.844 70.8274 6.016 70.8274 4.92V4.44C70.8274 3.944 70.7754 3.496 70.6714 3.096C70.5674 2.688 70.4154 2.34 70.2154 2.052C70.0234 1.764 69.7834 1.544 69.4954 1.392C69.2154 1.232 68.8954 1.152 68.5354 1.152C67.8074 1.152 67.2394 1.44 66.8314 2.016C66.4234 2.584 66.2194 3.4 66.2194 4.464V4.944C66.2194 6.032 66.4314 6.856 66.8554 7.416C67.2794 7.968 67.8474 8.244 68.5594 8.244ZM68.5594 9.108C68.0474 9.108 67.5794 9.008 67.1554 8.808C66.7394 8.608 66.3834 8.328 66.0874 7.968C65.7914 7.608 65.5594 7.172 65.3914 6.66C65.2314 6.148 65.1514 5.58 65.1514 4.956V4.476C65.1514 3.844 65.2274 3.272 65.3794 2.76C65.5394 2.248 65.7634 1.812 66.0514 1.452C66.3474 1.084 66.7034 0.804 67.1194 0.611999C67.5354 0.411999 68.0074 0.312 68.5354 0.312C69.0634 0.312 69.5354 0.411999 69.9514 0.611999C70.3674 0.812 70.7154 1.096 70.9954 1.464C71.2834 1.832 71.5034 2.272 71.6554 2.784C71.8074 3.288 71.8834 3.844 71.8834 4.452V4.932C71.8834 5.556 71.8074 6.124 71.6554 6.636C71.5114 7.148 71.2954 7.588 71.0074 7.956C70.7274 8.324 70.3794 8.608 69.9634 8.808C69.5554 9.008 69.0874 9.108 68.5594 9.108Z" fill="black"/>
</svg>
